<?xml version="1.0" encoding="UTF-8"?>
<svg width="702px" height="244px" viewBox="0 0 702 244" version="1.1" xmlns="http://www.w3.org/2000/svg" xmlns:xlink="http://www.w3.org/1999/xlink">
    <!-- Generator: sketchtool 59.1 (101010) - https://sketch.com -->
    <title>D628142E-F7D8-45DD-A900-2930BEDF315F</title>
    <desc>Created with sketchtool.</desc>
    <g id="MAIN" stroke="none" stroke-width="1" fill="none" fill-rule="evenodd">
        <g id="404" transform="translate(-372.000000, -271.000000)" fill="#28458F">
            <g id="Group" transform="translate(372.000000, 271.000000)">
                <path d="M676.1,15 L676.1,146.1 L701.6,146.1 L701.6,190.8 L676.1,190.8 L676.1,229.8 L624.2,229.8 L624.2,190.8 L524,190.8 L524,147.9 L620.9,15 L676.1,15 Z M628.4,74.4 L576.2,146.1 L628.4,146.1 L628.4,74.4 Z" id="4" fill-rule="nonzero"></path>
                <path d="M152.1,15 L152.1,146.1 L177.6,146.1 L177.6,190.8 L152.1,190.8 L152.1,229.8 L100.2,229.8 L100.2,190.8 L0,190.8 L0,147.9 L96.9,15 L152.1,15 Z M104.4,74.4 L52.2,146.1 L104.4,146.1 L104.4,74.4 Z" id="4-copy" fill-rule="nonzero"></path>
                <path d="M400,112 C388.406605,112 379,102.831178 379,91.5001807 C379,80.1825571 388.406605,71 400,71 C411.594136,71 421,80.1825571 421,91.5001807 C421,102.831178 411.594136,112 400,112 M281,91.5001807 C281,80.1825571 290.406605,71 302,71 C313.594136,71 323,80.1825571 323,91.5001807 C323,102.831178 313.594136,112 302,112 C290.406605,112 281,102.831178 281,91.5001807 M351,0 C246.969919,0 247,96.6095076 247,96.6095076 L247,244 L273.019076,209.533158 L298.99303,244 L324.969919,209.533158 L350.948275,244 L376.926998,209.533158 L402.906455,244 L428.906088,209.533158 L455,244 L455,96.6095076 C455,96.6095076 455.029714,0 351,0" id="Ghost"></path>
            </g>
        </g>
    </g>
</svg>