<?xml version="1.0" encoding="UTF-8"?>
<svg width="687px" height="230px" viewBox="0 0 687 230" version="1.1" xmlns="http://www.w3.org/2000/svg" xmlns:xlink="http://www.w3.org/1999/xlink">
    <!-- Generator: sketchtool 59.1 (101010) - https://sketch.com -->
    <title>5179C802-E657-4992-B388-09DDF3D5792D</title>
    <desc>Created with sketchtool.</desc>
    <defs>
        <polygon id="path-1" points="0 230 252 230 252 0 0 0"></polygon>
    </defs>
    <g id="MAIN" stroke="none" stroke-width="1" fill="none" fill-rule="evenodd">
        <g id="500" transform="translate(-377.000000, -279.000000)">
            <g id="_500" transform="translate(377.000000, 279.000000)">
                <path d="M143.1,50.8 L47.7,50.8 L47.7,93.7 C51.900021,88.899976 57.7499625,85.1500135 65.25,82.45 C72.7500375,79.7499865 80.899956,78.4 89.7,78.4 C103.900071,78.4 115.799952,81.5499685 125.4,87.85 C135.000048,94.1500315 142.099977,102.599947 146.7,113.2 C151.300023,123.800053 153.6,135.499936 153.6,148.3 C153.6,171.500116 147.100065,189.849933 134.1,203.35 C121.099935,216.850068 102.800118,223.6 79.2,223.6 C63.19992,223.6 49.300059,220.750029 37.5,215.05 C25.699941,209.349972 16.600032,201.400051 10.2,191.2 C3.799968,180.999949 0.400002,169.200067 1.8189894e-12,155.8 L50.1,155.8 C51.100005,162.600034 53.8499775,168.199978 58.35,172.6 C62.8500225,177.000022 68.999961,179.2 76.8,179.2 C85.800045,179.2 92.5499775,176.300029 97.05,170.5 C101.550023,164.699971 103.8,157.000048 103.8,147.4 C103.8,138.199954 101.400024,131.100025 96.6,126.1 C91.799976,121.099975 85.100043,118.6 76.5,118.6 C69.899967,118.6 64.400022,120.049986 60,122.95 C55.599978,125.850015 52.600008,129.599977 51,134.2 L1.2,134.2 L1.2,5.8 L143.1,5.8 L143.1,50.8 Z" id="5" fill="#FFC80A" fill-rule="nonzero"></path>
                <path d="M517.5,114.7 C517.5,147.900166 524.199933,174.199903 537.6,193.6 C551.000067,213.000097 572.399853,222.7 601.8,222.7 C631.000146,222.7 652.349933,213.000097 665.85,193.6 C679.350068,174.199903 686.1,147.900166 686.1,114.7 C686.1,81.699835 679.350068,55.5500965 665.85,36.25 C652.349933,16.9499035 631.000146,7.3 601.8,7.3 C572.399853,7.3 551.000067,16.9499035 537.6,36.25 C524.199933,55.5500965 517.5,81.699835 517.5,114.7 Z M635.1,114.7 C635.1,133.700095 632.850023,148.349949 628.35,158.65 C623.849978,168.950051 615.000066,174.1 601.8,174.1 C588.399933,174.1 579.400023,168.950051 574.8,158.65 C570.275387,148.518802 567.976027,134.179249 567.901854,115.630924 L567.9,114.7 C567.9,95.899906 570.199977,81.400051 574.8,71.2 C579.400023,60.999949 588.399933,55.9 601.8,55.9 C615.000066,55.9 623.849978,60.9499495 628.35,71.05 C632.850023,81.1500505 635.1,95.699905 635.1,114.7 Z" id="0" fill="#FFC80A" fill-rule="nonzero"></path>
                <g id="face" transform="translate(209.900000, 0.000000)">
                    <path d="M158.915918,177.971721 C160.531524,176.042798 161.339327,173.338972 161.339327,169.86337 L161.339327,156.134895 L139.875441,156.134895 L139.875441,169.86337 C139.875441,173.338972 140.749202,176.042798 142.496722,177.971721 C144.244243,179.900644 147.013754,180.865105 150.805256,180.865105 C154.596758,180.865105 157.300312,179.900644 158.915918,177.971721 L158.915918,177.971721 Z M132.655202,189.598031 C129.094204,185.329819 127.314052,179.236144 127.314052,171.314228 L127.314052,156.134895 L79,156.134895 L79,141 L174,141 L174,172.303686 C174,179.519789 172.120565,185.273924 168.362041,189.56366 C164.603171,193.855132 158.784004,196 150.904192,196 C142.29885,196 136.215854,193.864853 132.655202,189.598031 L132.655202,189.598031 Z" id="Fill-3" fill="#28458F"></path>
                    <mask id="mask-2" fill="white">
                        <use xlink:href="#path-1"></use>
                    </mask>
                    <g id="Clip-6"></g>
                    <path d="M70.1157025,34.4827586 L228.396694,34.4827586 L228.396694,23.1034483 L70.1157025,23.1034483 L70.1157025,34.4827586 Z M23.2561983,206.896552 L228.396694,206.896552 L228.396694,57.5862069 L23.2561983,57.5862069 L23.2561983,206.896552 Z M28.9713223,22.8327586 C32.1466612,22.8327586 34.7208099,25.39 34.7208099,28.5444828 C34.7208099,31.6989655 32.1466612,34.2562069 28.9713223,34.2562069 C25.7959835,34.2562069 23.2218347,31.6989655 23.2218347,28.5444828 C23.2218347,25.39 25.7959835,22.8327586 28.9713223,22.8327586 L28.9713223,22.8327586 Z M52.5746281,22.8327586 C55.7499669,22.8327586 58.3241157,25.39 58.3241157,28.5444828 C58.3241157,31.6989655 55.7499669,34.2562069 52.5746281,34.2562069 C49.3992893,34.2562069 46.8251405,31.6989655 46.8251405,28.5444828 C46.8251405,25.39 49.3992893,22.8327586 52.5746281,22.8327586 L52.5746281,22.8327586 Z M11.7190413,0 C5.28540496,0 0,5.00931034 0,11.4027586 L0,218.534828 C0,224.926207 5.28540496,230 11.7190413,230 L240.204942,230 C246.643091,230 252,224.926207 252,218.534828 L252,11.4027586 C252,5.00931034 246.643091,0 240.204942,0 L11.7190413,0 Z" id="Fill-5" fill="#FFC80A" mask="url(#mask-2)"></path>
                    <polygon id="Fill-1-Copy" fill="#28458F" mask="url(#mask-2)" points="99 110.400069 84.5998962 95.9929076 98.9972326 81.5919735 89.3940501 72 74.995676 86.3992043 60.5993773 72 51 81.5919735 65.3994119 95.999481 51 110.400069 60.5993773 120 74.995676 105.600104 89.399239 120"></polygon>
                    <polygon id="Fill-2-Copy" fill="#28458F" mask="url(#mask-2)" points="203 110.400069 188.599896 95.9929076 202.997233 81.5919735 193.39405 72 178.995676 86.3992043 164.599377 72 155 81.5919735 169.399412 95.999481 155 110.400069 164.599377 120 178.995676 105.600104 193.399239 120"></polygon>
                </g>
            </g>
        </g>
    </g>
</svg>