<?xml version="1.0" encoding="UTF-8"?>
<svg width="1199px" height="410px" viewBox="0 0 1199 410" version="1.1" xmlns="http://www.w3.org/2000/svg" xmlns:xlink="http://www.w3.org/1999/xlink">
    <!-- Generator: sketchtool 59.1 (101010) - https://sketch.com -->
    <title>47D6B6F8-4E08-46E9-9277-394F255F78A4</title>
    <desc>Created with sketchtool.</desc>
    <g id="MAIN" stroke="none" stroke-width="1" fill="none" fill-rule="evenodd">
        <g id="LANDING-OPTION-2" transform="translate(-120.000000, -2168.000000)">
            <g id="charts" transform="translate(120.000000, 2168.000000)">
                <g id="grid" transform="translate(0.000000, 43.768997)">
                    <g id="lines" transform="translate(77.507599, 7.294833)" opacity="0.5" stroke="#979797" stroke-linecap="square" stroke-width="0.911854103">
                        <g id="horizontal" transform="translate(0.000000, 2.735562)">
                            <line x1="-1.80326878e-16" y1="45.1367781" x2="1108.81459" y2="45.1367781" id="Line-Copy"></line>
                            <line x1="-1.80326878e-16" y1="136.322188" x2="1108.81459" y2="136.322188" id="Line-Copy-2"></line>
                            <line x1="-1.80326878e-16" y1="0.455927052" x2="1108.81459" y2="0.455927052" id="Line-Copy-3"></line>
                            <line x1="-1.80326878e-16" y1="90.7294833" x2="1108.81459" y2="90.7294833" id="Line-Copy-4"></line>
                            <line x1="-1.80326878e-16" y1="227.507599" x2="1108.81459" y2="227.507599" id="Line-Copy-8"></line>
                            <line x1="-1.80326878e-16" y1="318.693009" x2="1108.81459" y2="318.693009" id="Line-Copy-7"></line>
                            <line x1="-1.80326878e-16" y1="182.826748" x2="1108.81459" y2="182.826748" id="Line-Copy-6"></line>
                            <line x1="-1.80326878e-16" y1="273.100304" x2="1108.81459" y2="273.100304" id="Line-Copy-5"></line>
                        </g>
                    </g>
                    <g id="years" transform="translate(66.477204, 349.240122)" fill="#1A1A1A" font-family="Poppins-Regular, Poppins" font-size="14.5896657" font-weight="normal">
                        <text id="2005">
                            <tspan x="1.19331307" y="15">2005</tspan>
                        </text>
                        <text id="2006">
                            <tspan x="94.0778116" y="15">2006</tspan>
                        </text>
                        <text id="2007">
                            <tspan x="187.925836" y="15">2007</tspan>
                        </text>
                        <text id="2008">
                            <tspan x="276.419453" y="15">2008</tspan>
                        </text>
                        <text id="2009">
                            <tspan x="369.552584" y="15">2009</tspan>
                        </text>
                        <text id="2010">
                            <tspan x="462.623708" y="15">2010</tspan>
                        </text>
                        <text id="2011">
                            <tspan x="553.458967" y="15">2011</tspan>
                        </text>
                        <text id="2012">
                            <tspan x="647.617021" y="15">2012</tspan>
                        </text>
                        <text id="2013">
                            <tspan x="740.465653" y="15">2013</tspan>
                        </text>
                        <text id="2014">
                            <tspan x="830.968997" y="15">2014</tspan>
                        </text>
                        <text id="2015">
                            <tspan x="919.448024" y="15">2015</tspan>
                        </text>
                        <text id="2016">
                            <tspan x="1012.42067" y="15">2016</tspan>
                        </text>
                        <text id="2017">
                            <tspan x="1104.44498" y="15">2017</tspan>
                        </text>
                    </g>
                    <g id="values" fill="#1A1A1A" font-family="Poppins-Regular, Poppins" font-size="14.5896657" font-weight="normal">
                        <text id="0">
                            <tspan x="62.9598784" y="334.148936">0</tspan>
                        </text>
                        <text id="2.000.000">
                            <tspan x="4.54893617" y="288.556231">2.000.000</tspan>
                        </text>
                        <text id="4.000.000">
                            <tspan x="3.86382979" y="242.963526">4.000.000</tspan>
                        </text>
                        <text id="6.000.000">
                            <tspan x="3.84924012" y="197.370821">6.000.000</tspan>
                        </text>
                        <text id="8.000.000">
                            <tspan x="3.79088146" y="150.866261">8.000.000</tspan>
                        </text>
                        <text id="10.000.000">
                            <tspan x="0.116717325" y="104.361702">10.000.000</tspan>
                        </text>
                        <text id="12.000.000">
                            <tspan x="0.802431611" y="61.5045593">12.000.000</tspan>
                        </text>
                        <text id="14.000.000">
                            <tspan x="0.0291793313" y="15">14.000.000</tspan>
                        </text>
                    </g>
                </g>
                <g id="legend" transform="translate(384.000000, 0.000000)">
                    <circle id="Oval" fill="#03A900" cx="9.11854103" cy="10.0303951" r="9.11854103"></circle>
                    <text id="Deposito" font-family="Poppins-Regular, Poppins" font-size="14.5896657" font-weight="normal" fill="#1A1A1A">
                        <tspan x="25.5319149" y="15">Deposito</tspan>
                    </text>
                    <circle id="Oval-Copy-43" fill="#A9007D" cx="128.571429" cy="10.0303951" r="9.11854103"></circle>
                    <text id="Reksadana" font-family="Poppins-Regular, Poppins" font-size="14.5896657" font-weight="normal" fill="#1A1A1A">
                        <tspan x="144.984802" y="15">Reksadana</tspan>
                    </text>
                    <circle id="Oval-Copy-44" fill="#FFC80A" cx="264.43769" cy="10.0303951" r="9.11854103"></circle>
                    <text id="Emas" font-family="Poppins-Regular, Poppins" font-size="14.5896657" font-weight="normal" fill="#1A1A1A">
                        <tspan x="280.851064" y="15">Emas</tspan>
                    </text>
                    <circle id="Oval-Copy-45" fill="#0090A9" cx="359.270517" cy="10.0303951" r="9.11854103"></circle>
                    <text id="Properti" font-family="Poppins-Regular, Poppins" font-size="14.5896657" font-weight="normal" fill="#1A1A1A">
                        <tspan x="375.683891" y="15">Properti</tspan>
                    </text>
                </g>
                <g id="deposito" transform="translate(85.258359, 309.118541)" fill="#03A900">
                    <path id="Path-9" d="M1099.57843,-6.53414658 C1103.15453,-6.84804651 1106.31032,-4.17707562 1106.62708,-0.56836611 C1106.94384,3.0403434 1104.30163,6.22024664 1100.72552,6.53414658 C1097.4542,6.82129436 1094.53459,4.61066301 1093.81823,1.46932337 C1071.48421,3.38394382 1045.50404,5.20044751 1015.87851,6.91918027 L1015.87851,6.91918027 L1008.17834,7.35912465 C986.753969,8.56634387 974.975637,9.14605976 963.675364,9.5670579 L963.675364,9.5670579 L940.404994,10.3499036 C935.638057,10.5167747 930.651655,10.7029001 925.11774,10.9227503 L925.11774,10.9227503 L905.18621,11.7421056 L862.245623,13.4299496 C855.231094,13.7046844 848.738604,13.9669948 841.142659,14.2849148 L841.142659,14.2849148 L821.490538,15.1235822 C814.328786,15.4342208 808.532034,15.6923605 802.793752,15.9566109 L801.229234,16.0288747 L765.576101,17.7292703 C760.391289,17.9717787 755.40219,18.1988428 749.790008,18.447023 L749.790008,18.447023 L685.30125,21.2193769 C678.815066,21.4801256 671.881186,21.7407344 661.433473,22.1130175 L661.433473,22.1130175 L627.446628,23.2872309 C619.664328,23.5408566 613.191534,23.7320181 606.002714,23.9241755 L606.002714,23.9241755 L583.10785,24.5056903 C575.477383,24.7045589 568.89626,24.8959154 560.926161,25.1568938 L560.926161,25.1568938 L549.879761,25.5313624 L501.464341,27.1239973 C500.149332,27.1705361 498.87897,27.2166127 497.634979,27.2629263 L497.634979,27.2629263 L489.963848,27.5654498 C481.639091,27.9134563 473.403831,28.3249303 463.836864,28.8766929 L463.836864,28.8766929 L458.717091,29.1777025 C454.993488,29.4005616 451.578903,29.6269813 448.372065,29.8621854 L448.372065,29.8621854 L445.801922,30.0559133 C441.354899,30.4000224 437.488614,30.7454714 432.85073,31.2046061 L432.85073,31.2046061 L420.755054,32.4281045 C403.818837,34.1182519 393.976932,34.900042 372.718568,36.1460203 L372.718568,36.1460203 L358.782651,36.9509087 L326.646511,38.8340108 C323.47031,39.0082502 320.954176,39.1333768 318.618297,39.2331858 L318.618297,39.2331858 L314.033105,39.4090017 C309.31549,39.5703764 305.272882,39.6308124 295.129205,39.653064 L295.129205,39.653064 L271.679698,39.658689 C256.427962,39.5995837 245.66889,39.1605627 231.306333,38.2002163 L231.306333,38.2002163 L219.76573,37.4143658 C206.881474,36.5822632 197.377799,36.2944289 183.750622,36.4740849 L183.750622,36.4740849 L182.014173,36.4989623 C169.499959,36.6931507 161.721453,37.1493412 152.165587,38.093278 L152.165587,38.093278 L140.829069,39.237249 C137.116815,39.5940893 133.580476,39.8993967 129.654907,40.1936692 L129.654907,40.1936692 L128.334672,40.2910824 C119.457393,40.935759 109.047716,41.4859 96.0173037,41.963237 L96.0173037,41.963237 L90.3298403,42.1623008 C56.6109147,43.3013278 29.1836947,43.6152147 8.04517433,43.1036316 L8.04517433,43.1036316 L6.40555178,43.0606413 C5.86441122,46.2385491 3.06967195,48.6081735 -0.213835122,48.5010728 C-3.80177786,48.3840421 -6.61464289,45.3540454 -6.49654502,41.7333859 C-6.37844714,38.1127263 -3.37410762,35.272474 0.213835122,35.3895047 C3.49387011,35.4964922 6.12614948,38.0379324 6.46355584,41.2395631 C27.4961968,41.7993816 54.9846015,41.514678 88.9250571,40.38468 L88.9250571,40.38468 L94.968679,40.1764024 C108.110131,39.7034448 118.602927,39.1585967 127.534791,38.520273 L127.534791,38.520273 L129.518579,38.3750637 C133.919916,38.0451261 137.829666,37.7013254 142.051984,37.2859906 L142.051984,37.2859906 L152.638517,36.2144691 C161.516442,35.3510085 168.980022,34.9083034 180.298794,34.703768 L180.298794,34.703768 L183.726581,34.6505352 C197.404651,34.4702082 206.953124,34.7594405 219.880246,35.5942549 L219.880246,35.5942549 L222.605494,35.7747848 L232.549926,36.4550028 C247.438519,37.4347775 258.568786,37.8419453 275.379939,37.8419453 L275.379939,37.8419453 L292.443747,37.8341828 C306.623529,37.8135742 310.115656,37.7402851 316.667251,37.4873306 L316.667251,37.4873306 L319.833043,37.3541385 C322.353267,37.2396452 325.166964,37.0927441 328.821323,36.8862804 L328.821323,36.8862804 L356.635445,35.249237 L369.853974,34.4860034 C393.337878,33.1273407 403.213809,32.3516467 421.297726,30.5410657 L421.297726,30.5410657 L432.673325,29.3895454 C437.03187,28.958074 440.712716,28.6265676 444.83113,28.3024186 L444.83113,28.3024186 L447.366461,28.10793 C450.833768,27.8488635 454.537152,27.6009018 458.608137,27.3572519 L458.608137,27.3572519 L462.475981,27.128801 C473.435185,26.4905115 482.613766,26.0358463 492.064754,25.6538377 L492.064754,25.6538377 L495.350283,25.5243354 C498.034379,25.4211711 500.792819,25.3211979 503.820324,25.2169644 L503.820324,25.2169644 L563.575835,23.2464148 C568.896648,23.076071 573.686484,22.9348389 578.754454,22.7971222 L578.754454,22.7971222 L603.528364,22.1652959 C611.444558,21.9579025 618.274988,21.759802 626.529368,21.4923668 L626.529368,21.4923668 L641.913631,20.9731941 C657.328437,20.4376921 667.285912,20.0835861 675.179818,19.7871176 L675.179818,19.7871176 L688.426445,19.2670865 L744.468635,16.8551239 C750.829992,16.577836 756.233646,16.3359197 761.627433,16.0870525 L761.627433,16.0870525 L794.513704,14.5179514 C801.030467,14.2091917 806.885517,13.9405109 813.775137,13.6358165 L813.775137,13.6358165 L841.066864,12.4627823 C846.493567,12.2356538 851.357266,12.0368992 856.250347,11.8417243 L856.250347,11.8417243 L888.826874,10.5740961 L926.017175,9.06199508 C929.2368,8.934913 932.273654,8.81920784 935.194509,8.71193427 L935.194509,8.71193427 L943.042716,8.43394646 L956.27095,8.00000135 L964.048028,7.7281286 C972.120593,7.42474952 980.49849,7.0373265 992.52247,6.39501548 L992.52247,6.39501548 L1010.64142,5.39318608 C1041.06775,3.66392194 1067.75078,1.83450956 1090.69,-0.0949683086 L1090.69,-0.0949683086 L1093.65932,-0.347746852 C1093.81948,-3.56393786 1096.30856,-6.24712692 1099.57843,-6.53414658 Z" fill-rule="nonzero"></path>
                    <circle id="Oval" cx="1008.05471" cy="6.38297872" r="6.38297872"></circle>
                    <circle id="Oval-Copy-33" cx="916.869301" cy="10.0303951" r="6.38297872"></circle>
                    <circle id="Oval-Copy-34" cx="825.683891" cy="14.5896657" r="6.38297872"></circle>
                    <circle id="Oval-Copy-35" cx="733.586626" cy="19.1489362" r="6.38297872"></circle>
                    <circle id="Oval-Copy-36" cx="642.401216" cy="21.8844985" r="6.38297872"></circle>
                    <circle id="Oval-Copy-37" cx="550.303951" cy="25.5319149" r="6.38297872"></circle>
                    <circle id="Oval-Copy-38" cx="459.118541" cy="29.1793313" r="6.38297872"></circle>
                    <circle id="Oval-Copy-39" cx="367.021277" cy="36.4741641" r="6.38297872"></circle>
                    <circle id="Oval-Copy-40" cx="275.835866" cy="39.2097264" r="6.38297872"></circle>
                    <circle id="Oval-Copy-41" cx="183.738602" cy="35.56231" r="6.38297872"></circle>
                    <circle id="Oval-Copy-42" cx="92.5531915" cy="41.0334347" r="6.38297872"></circle>
                </g>
                <g id="emas" transform="translate(85.258359, 250.759878)" fill="#FFC80A">
                    <path id="Path-7" d="M1098.98845,-0.0341427113 C1102.39387,-1.16998862 1106.08368,0.695037465 1107.22989,4.13150963 C1108.37609,7.5679818 1106.54463,11.2745779 1103.13921,12.4104239 C1100.01817,13.4514181 1096.65825,11.9718045 1095.23649,9.07197749 C1076.26254,14.8460926 1048.16821,19.3560948 1010.93669,22.6100184 L1010.93669,22.6100184 L1008.58797,22.8125922 C978.487023,25.3745296 966.129187,25.7109221 953.865694,24.7074532 L953.865694,24.7074532 L952.331972,24.5751052 L944.736878,23.8657462 C937.070726,23.2007218 929.711761,22.8644661 918.904727,22.8207837 L918.904727,22.8207837 L916.413374,22.8158771 C904.693465,22.8158771 894.929768,22.9528161 882.841086,23.24295 L882.841086,23.24295 L860.252314,23.7982638 C855.097092,23.9051987 852.483022,23.9166998 849.03121,23.8840274 L849.03121,23.8840274 L844.787233,23.8290554 C838.185819,23.7099123 831.876562,23.3893184 825.150061,22.8125432 C816.289804,22.0528055 809.368314,20.597724 792.633526,16.2260649 L792.633526,16.2260649 L782.92409,13.6725836 C778.991823,12.6465939 776.082391,11.9147198 773.106201,11.2088923 L773.106201,11.2088923 L771.44636,10.819795 C755.947517,7.23392776 744.102611,5.90569278 733.229816,7.09459174 C724.772855,8.01932843 719.546993,10.2090427 713.137048,14.8393982 L713.137048,14.8393982 L713.05754,14.8972468 C711.96711,15.6950712 706.875395,19.5656254 704.71916,21.1222147 L704.71916,21.1222147 L703.6194,21.8996433 C699.995598,24.4222256 696.383468,26.5860899 692.181428,28.6621248 C680.649333,34.3596035 665.409136,38.9328829 644.106286,42.5126761 L644.106286,42.5126761 L642.091311,42.8453751 C623.101167,45.9261654 610.020377,47.126634 600.716009,46.8063819 L600.716009,46.8063819 L599.867808,46.7725114 C592.470714,46.4354319 588.285559,45.3501729 582.048486,42.7102606 L582.048486,42.7102606 L579.013963,41.4317821 C571.031945,38.1859268 563.831145,36.8341299 549.848024,36.8341299 L549.848024,36.8341299 L548.844132,36.8345165 C528.558272,36.8502581 515.950959,37.3477998 502.664991,38.5325385 L502.664991,38.5325385 L500.085,38.77 L500.10962,38.7682322 C500.693941,38.7224992 475.47917,41.3641563 461.676061,42.5983813 L461.25284,42.6361 L455.524879,43.1268824 C445.052334,44.0255889 436.901906,44.821247 428.376888,45.7554015 L428.376888,45.7554015 L423.195353,46.3344461 L414.61589,47.3220927 C398.76899,49.1461941 390.748486,50.0168406 378.105966,51.1954358 L378.105966,51.1954358 L366.040298,52.2931948 C351.183635,53.620256 343.718726,54.1578552 328.361823,54.9454531 L328.361823,54.9454531 L310.324774,55.832869 C304.714709,56.1139922 300.686159,56.3583563 296.763453,56.6699475 L296.763453,56.6699475 L295.407554,56.7806509 C288.659857,57.3463964 282.373333,58.1195707 275.529586,59.2581534 C268.377869,60.4479726 263.032805,61.8912329 256.440969,64.2337543 C254.924066,64.7728117 249.417097,66.8154917 246.872086,67.7450395 L246.872086,67.7450395 L244.874195,68.4627732 C240.744494,69.9241179 236.826828,71.1921531 232.403051,72.4672 C220.38818,75.9301961 205.513936,79.148406 185.546755,82.383118 L185.546755,82.383118 L183.42604,82.7236862 C150.343575,87.9905464 137.687574,88.8248644 121.348847,87.9413805 L121.348847,87.9413805 L118.751955,87.795921 C109.743945,87.3100489 103.993372,87.3568346 93.827786,88.2907451 L93.827786,88.2907451 L91.1212869,88.5489448 C69.0613775,90.7049782 42.1107072,94.1525019 10.270864,98.8915217 L10.270864,98.8915217 L6.50166889,99.4554517 C6.54411745,102.675767 4.22816046,105.510384 0.982409998,106.00206 C-2.56694813,106.539727 -5.88411135,104.072033 -6.42668141,100.490309 C-6.96925147,96.9085863 -4.53176813,93.5691606 -0.982409998,93.0314932 C2.26421694,92.5396845 5.31656847,94.5624355 6.22887559,97.652255 C40.2663373,92.5390862 68.8592226,88.8652371 92.0096439,86.6303593 L92.0096439,86.6303593 L92.8480306,86.5503602 C103.620269,85.5348755 109.518659,85.4717496 118.844625,85.9745654 L118.844625,85.9745654 L121.940595,86.1465353 C137.578102,86.9620495 149.993214,86.1515036 181.146607,81.2384365 L181.146607,81.2384365 L185.252942,80.5832327 C204.45452,77.4726197 218.912303,74.3811851 230.630405,71.0762273 L230.630405,71.0762273 L231.897972,70.7148282 C236.684118,69.3353374 240.871289,67.9646547 245.390209,66.3427804 L245.390209,66.3427804 L245.78529,66.200012 C248.034171,65.3833812 254.197527,63.0955598 255.830297,62.5153274 L255.830297,62.5153274 L256.695836,62.2104166 C262.995223,60.0112948 268.281425,58.6152433 275.230292,57.4591718 C282.123922,56.3122901 288.459367,55.533099 295.255184,54.9633191 L295.255184,54.9633191 L295.709442,54.9255628 C299.796503,54.5888419 303.869949,54.3339884 309.587803,54.0439945 L309.587803,54.0439945 L318.601943,53.6050054 C339.003951,52.612039 346.806613,52.1410942 361.307985,50.8800068 L361.307985,50.8800068 L374.150152,49.729277 C386.734886,48.577026 394.363688,47.7904161 406.825474,46.377477 L406.825474,46.377477 L423.865861,44.422968 C433.477844,43.3355724 442.093014,42.4646184 453.300758,41.4886255 L453.300758,41.4886255 L458.586224,41.03664 C470.781902,40.0113567 498.123496,37.1586367 499.858822,36.9628601 L499.858822,36.9628601 L501.846516,36.7750834 C515.212569,35.56272 527.760157,35.0437098 547.8476,35.0119786 L547.8476,35.0119786 L550.577378,35.0116701 C564.321626,35.0591634 571.639329,36.4647125 579.697414,39.7409817 L579.697414,39.7409817 L580.548678,40.0927837 L583.303939,41.259468 C589.055262,43.6541829 593.008502,44.6343376 599.950827,44.9506938 C608.743395,45.351364 621.165489,44.3038083 639.22263,41.4573759 L639.22263,41.4573759 L641.799267,41.0452024 C663.993029,37.4446856 679.65792,32.8152739 691.373628,27.0270804 C695.784603,24.8478198 699.528054,22.5722408 703.340828,19.8662765 C705.126914,18.5986738 710.229254,14.7232253 711.763813,13.5853913 L711.763813,13.5853913 L712.521035,13.0372423 C718.974484,8.45085451 724.440132,6.22113192 733.031582,5.2816894 C744.356785,4.04332137 756.627699,5.46632471 772.744361,9.24973452 C776.016908,10.0179696 779.093931,10.7884887 783.379405,11.9066169 L783.379405,11.9066169 L792.457788,14.2950642 C808.926727,18.6056381 815.95881,20.1278633 824.354973,20.9104715 L824.354973,20.9104715 L825.305866,20.9955027 C832.598571,21.620828 839.395709,21.9430599 846.618111,22.0330287 C851.616259,22.0952901 854.116812,22.1055165 860.863472,21.9612427 L860.863472,21.9612427 L881.391822,21.4539266 C893.20599,21.1632971 902.718709,21.0149875 913.737895,20.9946104 L913.737895,20.9946104 L917.261041,20.9927166 C929.032096,21.0080628 936.793999,21.3461758 944.893876,22.0488084 L944.893876,22.0488084 L946.636321,22.2049671 L953.256419,22.82608 C964.773092,23.8201206 976.064644,23.6376889 1002.14533,21.5190794 L1002.14533,21.5190794 L1008.43331,20.9954537 C1046.48082,17.7571722 1075.12497,13.2339037 1094.3474,7.43505194 L1094.3474,7.43505194 L1094.66428,7.33804666 C1094.08426,4.1790929 1095.88111,1.00227844 1098.98845,-0.0341427113 Z" fill-rule="nonzero"></path>
                    <circle id="Oval" cx="276.74772" cy="58.3586626" r="6.38297872"></circle>
                    <circle id="Oval-Copy-9" cx="183.738602" cy="82.0668693" r="6.38297872"></circle>
                    <circle id="Oval-Copy-10" cx="92.5531915" cy="88.449848" r="6.38297872"></circle>
                    <circle id="Oval-Copy" cx="367.021277" cy="51.0638298" r="6.38297872"></circle>
                    <circle id="Oval-Copy-2" cx="458.206687" cy="41.9452888" r="6.38297872"></circle>
                    <circle id="Oval-Copy-3" cx="550.303951" cy="35.56231" r="6.38297872"></circle>
                    <circle id="Oval-Copy-4" cx="642.401216" cy="41.9452888" r="6.38297872"></circle>
                    <circle id="Oval-Copy-5" cx="733.586626" cy="6.38297872" r="6.38297872"></circle>
                    <circle id="Oval-Copy-6" cx="824.772036" cy="21.8844985" r="6.38297872"></circle>
                    <circle id="Oval-Copy-7" cx="916.869301" cy="21.8844985" r="6.38297872"></circle>
                    <circle id="Oval-Copy-8" cx="1008.96657" cy="21.8844985" r="6.38297872"></circle>
                </g>
                <g id="properti" transform="translate(79.331307, 61.094225)">
                    <path d="M5.92705167,289.969605 C31.6812276,294.144155 62.3803158,293.881763 98.0243161,289.18243 C151.490317,282.13343 151.0468,270.672997 189.209726,265.805471 C227.372653,260.937945 232.417506,268.815907 281.306991,265.805471 C330.196476,262.795035 324.784636,263.091434 374.316109,254.407295 C423.847583,245.723155 425.149915,238.601279 464.589666,233.67131 C504.029416,228.741341 504.879276,237.863826 556.68693,231.610942 C608.494584,225.358058 594.767339,227.87994 647.87234,211.550152 C700.977342,195.220364 688.793362,198.163394 739.057751,175.531915 C789.32214,152.900436 785.603985,151.859385 831.155015,129.027356 C876.706045,106.195326 876.837522,106.243003 922.796353,83.4346505 C968.755183,60.6262977 974.946443,54.5441953 1014.89362,37.8419453 C1041.52507,26.7071119 1072.22415,16.2335854 1106.99088,6.42136568" id="Path-10" stroke="#0090A9" stroke-width="1.82370821"></path>
                    <circle id="Oval-Copy-4" fill="#0090A9" cx="6.38297872" cy="289.969605" r="6.38297872"></circle>
                    <circle id="Oval-Copy-11" fill="#0090A9" cx="98.4802432" cy="288.145897" r="6.38297872"></circle>
                    <circle id="Oval-Copy-12" fill="#0090A9" cx="189.665653" cy="265.349544" r="6.38297872"></circle>
                    <circle id="Oval-Copy-13" fill="#0090A9" cx="281.762918" cy="265.349544" r="6.38297872"></circle>
                    <circle id="Oval-Copy-14" fill="#0090A9" cx="372.948328" cy="254.407295" r="6.38297872"></circle>
                    <circle id="Oval-Copy-15" fill="#0090A9" cx="465.045593" cy="233.43465" r="6.38297872"></circle>
                    <circle id="Oval-Copy-16" fill="#0090A9" cx="556.231003" cy="230.699088" r="6.38297872"></circle>
                    <circle id="Oval-Copy-17" fill="#0090A9" cx="648.328267" cy="210.638298" r="6.38297872"></circle>
                    <circle id="Oval-Copy-18" fill="#0090A9" cx="739.513678" cy="175.987842" r="6.38297872"></circle>
                    <circle id="Oval-Copy-19" fill="#0090A9" cx="831.610942" cy="128.571429" r="6.38297872"></circle>
                    <circle id="Oval-Copy-20" fill="#0090A9" cx="922.796353" cy="82.9787234" r="6.38297872"></circle>
                    <circle id="Oval-Copy-21" fill="#0090A9" cx="1014.89362" cy="38.2978723" r="6.38297872"></circle>
                    <circle id="Oval-Copy-22" fill="#0090A9" cx="1106.99088" cy="6.38297872" r="6.38297872"></circle>
                </g>
                <g id="Reksadana" transform="translate(85.714286, 218.844985)" fill="#A9007D">
                    <path id="Path-8" d="M1099.04683,0.25548572 C1102.53353,-0.598878775 1106.05898,1.56082621 1106.92114,5.07932181 C1107.78329,8.59781741 1105.65567,12.1427209 1102.16897,12.9970854 C1098.97739,13.779135 1095.75335,12.0357537 1094.5692,9.03647599 C1065.92092,15.7783247 1037.23423,19.1489362 1008.51064,19.1489362 C990.679487,19.1489362 977.534835,17.267881 960.00526,13.11238 C958.703465,12.8037811 954.285852,11.7363985 951.994645,11.186834 L951.994645,11.186834 L948.955436,10.4703924 C946.860897,9.98652046 945.031154,9.58627189 943.280561,9.23294759 L943.280561,9.23294759 L942.238218,9.02629033 C932.823812,7.19384754 924.881152,6.65264606 916.047943,7.53363797 C906.945505,8.44148176 900.578938,10.2135595 893.168136,13.5577314 L893.17,13.556 L893.187866,13.5490321 C893.609252,13.3712102 878.012279,20.9753018 870.859101,23.9612391 L870.623823,24.0590429 L869.516843,24.5088305 C858.244078,29.0346323 844.916453,33.0781561 827.490919,36.9529354 L827.490919,36.9529354 L825.421827,37.4080321 C794.693467,44.0938466 783.196465,45.8253693 771.8815,45.9141736 L771.8815,45.9141736 L771.023758,45.9190298 L764.333218,45.8854047 C754.772755,45.8576504 747.260913,46.1514874 734.423952,47.2660359 L734.423952,47.2660359 L727.719473,47.8570778 C711.285977,49.2905866 701.541898,49.9654333 687.926883,50.6944187 L687.926883,50.6944187 L680.54743,51.0779405 C666.404209,51.8062408 657.532002,52.3991451 641.568845,53.7959213 L641.568845,53.7959213 L625.967586,55.1695371 C598.325611,57.6272396 587.585901,58.7699474 561.449563,61.9967566 L561.449563,61.9967566 L549.109621,63.5290635 C543.455687,64.227314 537.92045,64.8670895 531.859734,65.5303072 L531.859734,65.5303072 L527.571985,65.99421 L505.600033,68.32174 C493.335601,69.6753946 484.891431,70.8409917 476.636991,72.4133834 L476.636991,72.4133834 L474.950079,72.7408708 C469.501314,73.8184251 464.23204,75.069262 458.9088,76.5618827 C451.685501,78.5872744 446.72458,80.9551916 440.39104,85.0215141 C440.026137,85.2557928 433.122177,89.8194939 430.775782,91.2770976 L430.775782,91.2770976 L429.937453,91.7938115 C426.026001,94.1855191 422.110629,96.3087708 417.585675,98.4272702 C405.326655,104.166715 389.227994,109.507282 366.77715,114.868678 L366.77715,114.868678 L365.633449,115.141388 C328.903853,123.885898 316.351992,125.551068 305.158898,123.87774 L305.158898,123.87774 L304.468075,123.77001 C303.118979,123.551017 298.437826,122.667826 297.024927,122.411591 L297.024927,122.411591 L295.544771,122.156707 C289.599926,121.169663 283.594896,120.58987 275.354997,120.3644 C261.098328,119.974293 250.456335,118.558166 234.761983,115.443458 L234.761983,115.443458 L232.638702,115.018039 L225.194804,113.509829 C224.050751,113.281277 223.02817,113.080273 222.027641,112.887625 L222.027641,112.887625 L220.937486,112.679744 C206.858474,110.021759 196.35461,109.097691 183.337152,109.876791 C171.764176,110.569438 164.717238,112.134821 156.052914,115.437199 C155.027485,115.828038 148.242146,118.535399 145.459024,119.589455 L145.459024,119.589455 L144.128087,120.083739 C139.644657,121.725174 135.202196,123.132717 130.069309,124.482957 C120.126392,127.098508 108.061093,129.346879 92.6679546,131.29974 C54.7468115,136.110631 25.9262949,137.091446 6.18085723,134.23218 C5.19251825,137.3097 2.07656836,139.258236 -1.16378081,138.674048 C-4.69667606,138.037117 -7.03961111,134.63069 -6.39687271,131.06558 C-5.75413432,127.50047 -2.36911443,125.126712 1.16378081,125.763642 C4.38510783,126.344401 6.6171063,129.22771 6.49849091,132.434375 C25.647542,135.199141 53.5400466,134.31638 90.1503468,129.777524 L90.1503468,129.777524 L92.4384284,129.490533 C107.075649,127.633573 118.672186,125.511252 128.277845,123.062991 L128.277845,123.062991 L129.605354,122.719252 C135.043822,121.288627 139.693315,119.794619 144.452414,118.019629 L144.452414,118.019629 L144.632505,117.952152 C147.011165,117.057226 153.027464,114.661523 154.943612,113.911538 L154.943612,113.911538 L155.990011,113.511208 C164.560823,110.295137 171.727316,108.744672 183.228197,108.05634 C196.75095,107.246998 207.602717,108.252963 222.372455,111.096811 C223.664239,111.345539 224.991599,111.607933 226.566517,111.924906 L226.566517,111.924906 L234.063497,113.444538 C250.248725,116.687664 260.952232,118.145904 275.404881,118.541375 L275.404881,118.541375 L277.095997,118.593659 C285.122376,118.871371 291.062174,119.512854 297.089774,120.570485 C298.022233,120.734098 302.661531,121.610933 304.428102,121.91414 L304.428102,121.91414 L305.096033,122.023286 C315.963937,123.717427 328.078624,122.180454 364.095047,113.632558 L364.095047,113.632558 L367.380036,112.848662 C388.50124,107.761239 403.876196,102.697191 415.681066,97.2990702 L415.681066,97.2990702 L416.812401,96.7756166 C421.592737,94.5375522 425.678579,92.296582 429.813444,89.727963 C431.660039,88.5808407 436.40019,85.4624798 438.451891,84.1129958 L438.451891,84.1129958 L440.048985,83.0767482 C446.225835,79.1664544 451.250228,76.8152794 458.416428,74.8058985 C463.786157,73.3002424 469.101621,72.0384404 474.596272,70.9518117 C483.275004,69.2354952 491.875526,68.0134453 504.562324,66.6018603 L504.562324,66.6018603 L507.967356,66.2288717 L528.826987,64.0252075 C535.536378,63.3019889 541.521107,62.6206569 547.585084,61.8790021 L547.585084,61.8790021 L563.238285,59.9387567 C589.603042,56.694111 600.252788,55.6042124 631.410953,52.8568872 L631.410953,52.8568872 L644.516329,51.7098337 C657.264036,50.6156435 665.541021,50.0505055 676.792422,49.4486248 L676.792422,49.4486248 L686.208558,48.9594102 C700.125949,48.2258664 709.757608,47.5786129 725.662793,46.2050415 L725.662793,46.2050415 L734.26922,45.4489031 C747.43604,44.3058026 755.044494,44.0216678 764.951307,44.0639059 L764.951307,44.0639059 L767.813363,44.083036 C769.307078,44.0941124 770.178097,44.0979836 771.017049,44.0953279 L771.017049,44.0953279 L772.872686,44.0781534 C782.944215,43.9087191 793.66576,42.3398563 818.880997,36.9533013 L818.880997,36.9533013 L825.0341,35.6260167 C843.037491,31.7088752 856.6964,27.6371149 868.176419,23.080282 L868.176419,23.080282 L869.49149,22.5523221 C875.993675,19.91215 891.773026,12.2368966 892.422184,11.8967252 L892.422184,11.8967252 L893.08478,11.5975208 C900.391969,8.36568601 906.83513,6.61973383 915.866951,5.71893317 C924.891805,4.8188273 933.008696,5.37190068 942.58665,7.23617671 C944.68042,7.64371311 946.83119,8.10794145 949.362352,8.69265462 L949.362352,8.69265462 L951.3371,9.15477716 C952.424498,9.41216951 955.967664,10.26761 958.393936,10.8510727 L958.393936,10.8510727 L961.633057,11.6220045 C978.436357,15.5488814 991.250709,17.325228 1008.51064,17.325228 C1037.3707,17.325228 1066.19458,13.9055188 1094.98362,7.06562656 L1094.13732,7.26454864 C1093.8094,4.06362363 1095.86067,1.03620649 1099.04683,0.25548572 Z" fill-rule="nonzero"></path>
                    <circle id="Oval" cx="92.0972644" cy="130.395137" r="6.38297872"></circle>
                    <circle id="Oval-Copy-23" cx="183.282675" cy="108.510638" r="6.38297872"></circle>
                    <circle id="Oval-Copy-24" cx="275.379939" cy="118.541033" r="6.38297872"></circle>
                    <circle id="Oval-Copy-25" cx="366.56535" cy="114.893617" r="6.38297872"></circle>
                    <circle id="Oval-Copy-26" cx="457.75076" cy="75.6838906" r="6.38297872"></circle>
                    <circle id="Oval-Copy-27" cx="550.759878" cy="62.006079" r="6.38297872"></circle>
                    <circle id="Oval-Copy-28" cx="641.033435" cy="52.887538" r="6.38297872"></circle>
                    <circle id="Oval-Copy-29" cx="732.218845" cy="46.5045593" r="6.38297872"></circle>
                    <circle id="Oval-Copy-30" cx="825.227964" cy="35.56231" r="6.38297872"></circle>
                    <circle id="Oval-Copy-31" cx="916.413374" cy="6.38297872" r="6.38297872"></circle>
                    <circle id="Oval-Copy-32" cx="1007.59878" cy="19.1489362" r="6.38297872"></circle>
                </g>
            </g>
        </g>
    </g>
</svg>