<?xml version="1.0" encoding="UTF-8"?>
<svg width="214px" height="188px" viewBox="0 0 214 188" version="1.1" xmlns="http://www.w3.org/2000/svg" xmlns:xlink="http://www.w3.org/1999/xlink">
    <!-- Generator: sketchtool 57.1 (101010) - https://sketch.com -->
    <title>EF252F48-24BE-4679-8E23-8ED69845F83A</title>
    <desc>Created with sketchtool.</desc>
    <g id="Page-1" stroke="none" stroke-width="1" fill="none" fill-rule="evenodd">
        <g id="LANDING-OPTION-2" transform="translate(-254.000000, -2598.000000)">
            <g id="Group-26" transform="translate(254.000000, 2598.000000)">
                <path d="M106.184465,188 C165.122994,188 213.435294,165.656176 213.435294,106.717647 C213.435294,74.4619417 166.252247,82.7823546 143.633952,63.21397 C124.923464,47.0264537 133.400471,0 106.717647,0 C47.7791181,0 2.4158453e-13,47.7791181 2.4158453e-13,106.717647 C2.4158453e-13,165.656176 47.2459355,188 106.184465,188 Z" id="Oval" fill="#D4DAE9"></path>
                <g id="money-box" transform="translate(57.000000, 46.000000)" fill="#28458F" fill-rule="nonzero">
                    <path d="M75.6439216,37.2580392 C73.5670588,31.4401961 69.5982353,26.3988235 64.1894118,22.9652941 C63.5035294,22.5301961 62.595098,22.7333333 62.1596078,23.4188235 C61.7243137,24.1045098 61.9272549,25.0133333 62.6131373,25.4486275 C67.0756863,28.2815686 70.4429412,32.3364706 72.4007843,37.0303922 C72.4007843,37.0303922 65.4503922,37.0303922 65.4501961,37.0303922 C65.2935294,37.0303922 64.4047059,35.4611765 64.2513725,35.2598039 C63.8015686,34.6696078 63.3176471,34.1054902 62.802549,33.5711765 C61.7933333,32.5243137 60.665098,31.5927451 59.4456863,30.8005882 C56.7156863,29.0270588 53.5368627,27.9770588 50.2911765,27.7776471 C50.2858824,27.7772549 50.2803922,27.7768627 50.275098,27.7766667 C49.3131373,27.7180392 48.3331373,27.732549 47.3752941,27.8192157 C47.3584314,27.8207843 47.3415686,27.8221569 47.3247059,27.8237255 C46.4023529,27.9098039 45.3329412,28.0888235 44.4645098,28.3101961 C44.4539216,28.3129412 44.4445098,28.3178431 44.4341176,28.3205882 C38.767451,29.8803922 34.0203922,33.7568627 31.6515686,39.1860784 C30.8154902,41.1021569 30.3343137,43.0070588 30.1503922,45.0635294 C29.9629412,47.1588235 30.1296078,49.3764706 30.645098,51.4143137 C30.6460784,51.4184314 30.6480392,51.4219608 30.6492157,51.4260784 C32.1158824,57.0905882 36.1347059,61.8735294 41.507451,64.2221569 C43.0786275,64.9090196 44.7480392,65.3690196 46.445098,65.6090196 C48.6,65.9137255 50.6101961,65.8692157 52.742549,65.4560784 C57.9752941,64.4423529 62.6907843,61.1282353 65.4509804,56.5143137 L72.3858824,56.5143137 C68.5662745,65.607451 59.5711765,72.0105882 49.1064706,72.0105882 C35.19,72.0105882 23.8680392,60.6888235 23.8680392,46.7723529 C23.8680392,32.8556863 35.19,21.5339216 49.1064706,21.5339216 C51.7262745,21.5339216 54.3072549,21.9331373 56.7780392,22.7205882 C57.5515686,22.9680392 58.3790196,22.54 58.6256863,21.7660784 C58.8723529,20.9923529 58.444902,20.165098 57.6709804,19.9184314 C54.9111765,19.0388235 52.0296078,18.5927451 49.1062745,18.5927451 C33.5680392,18.5927451 20.9266667,31.2341176 20.9266667,46.7723529 C20.9266667,62.3105882 33.5680392,74.9517647 49.1062745,74.9517647 C61.3056863,74.9517647 71.7178431,67.1588235 75.6298039,56.2898039 C80.0084314,55.3364706 83.2982353,51.4323529 83.2982353,46.7721569 C83.2982353,42.1172549 80.0154902,38.2166667 75.6439216,37.2580392 L75.6439216,37.2580392 Z M64.1296078,41.0176471 L57.4776471,41.0176471 C56.7719608,39.9943137 55.8841176,39.1064706 54.8607843,38.4007843 L54.8607843,31.7488235 C59.1107843,33.3823529 62.4960784,36.7678431 64.1296078,41.0176471 Z M49.1056863,53.9958824 C45.1227451,53.9958824 41.882549,50.7556863 41.882549,46.7727451 C41.882549,42.7898039 45.1227451,39.5496078 49.1056863,39.5496078 C53.0886275,39.5496078 56.3288235,42.7898039 56.3288235,46.7727451 C56.3288235,50.7556863 53.0886275,53.9958824 49.1056863,53.9958824 L49.1056863,53.9958824 Z M48.1247059,30.7135294 C48.4488235,30.6939216 51.9198039,30.647451 51.9198039,30.9321569 L51.9198039,37.0078431 C51.0254902,36.7498039 50.0821569,36.6086275 49.1058824,36.6086275 C48.1303922,36.6086275 47.1876471,36.7496078 46.2939216,37.007451 C46.2939216,34.0227451 46.2939216,30.9317647 46.2939216,30.9317647 C46.3039216,30.8156863 48.0156863,30.72 48.1247059,30.7135294 Z M43.352549,31.7480392 L43.352549,38.3994118 C42.3284314,39.1052941 41.4398039,39.9937255 40.7337255,41.0176471 L34.0817647,41.0176471 C35.7156863,36.7670588 39.1017647,33.3813725 43.352549,31.7480392 L43.352549,31.7480392 Z M33.2286275,49.3831373 C32.9480392,47.6713725 32.9478431,45.8817647 33.2266667,44.1729412 C33.2384314,44.1011765 33.2523529,44.0303922 33.264902,43.9588235 L39.3403922,43.9588235 C39.0823529,44.8531373 38.9411765,45.7964706 38.9411765,46.7727451 C38.9411765,47.7484314 39.0821569,48.6911765 39.34,49.584902 L33.2647059,49.584902 C33.2529412,49.5176471 33.2398039,49.4507843 33.2286275,49.3831373 L33.2286275,49.3831373 Z M34.0811765,52.5260784 L40.732549,52.5260784 C41.4388235,53.5507843 42.3278431,54.4398039 43.352549,55.1460784 L43.352549,61.797451 C39.1011765,60.1639216 35.7147059,56.777451 34.0811765,52.5260784 Z M49.55,62.8535294 C48.5303922,62.8811765 47.5015686,62.8143137 46.4960784,62.65 C46.4282353,62.6388235 46.3611765,62.6256863 46.2937255,62.6137255 L46.2937255,56.5382353 C47.187451,56.7960784 48.1301961,56.9370588 49.1056863,56.9370588 C50.0819608,56.9370588 51.0252941,56.7958824 51.9196078,56.5378431 L51.9196078,62.6135294 C51.1596078,62.7482353 50.2970588,62.8331373 49.55,62.8535294 L49.55,62.8535294 Z M54.8609804,61.7966667 L54.8609804,55.1447059 C55.884902,54.4386275 56.7731373,53.5501961 57.4790196,52.5260784 L64.1303922,52.5260784 C62.4970588,56.7768627 59.1113725,60.1629412 54.8609804,61.7966667 L54.8609804,61.7966667 Z M64.9466667,49.584902 L58.8713725,49.584902 C59.1292157,48.6911765 59.2701961,47.7484314 59.2701961,46.7727451 C59.2701961,45.7964706 59.1290196,44.8531373 58.8709804,43.9588235 C58.8709804,43.9588235 64.9213725,43.9515686 64.945098,43.9501961 C65.3229412,43.9264706 65.3423529,49.5107843 64.9466667,49.584902 L64.9466667,49.584902 Z M73.5560784,53.5731373 L66.8819608,53.5731373 C67.1470588,52.882549 67.3733333,52.1731373 67.557451,51.4468627 C67.5605882,51.4356863 67.5656863,51.4256863 67.5686275,51.4143137 C68.0223529,49.6101961 68.2190196,47.3513725 68.0886275,45.4903922 C68.0094118,44.3598039 67.8458824,43.2292157 67.5686275,42.1294118 C67.5654902,42.1166667 67.5596078,42.1052941 67.5560784,42.0927451 C67.3721569,41.3682353 67.1460784,40.6603922 66.8817647,39.9715686 L73.5562745,39.9715686 C77.3062745,39.9715686 80.3570588,43.022549 80.3570588,46.772549 C80.3570588,50.522549 77.3060784,53.5731373 73.5560784,53.5731373 Z" id="Shape"></path>
                    <path d="M98.4680392,56.4576471 C97.6558824,56.4576471 96.997451,57.1158824 96.997451,57.9282353 L96.997451,88.6907843 C96.997451,89.7454902 96.1394118,90.6035294 95.0847059,90.6035294 L84.8196078,90.6035294 L70.1431373,90.6035294 L42.737451,90.6035294 C41.9252941,90.6035294 41.2668627,91.2617647 41.2668627,92.0741176 C41.2668627,92.8864706 41.9252941,93.5447059 42.737451,93.5447059 L68.672549,93.5447059 L68.672549,96.3045098 C68.672549,98.545098 70.4952941,100.367843 72.7358824,100.367843 L82.2268627,100.367843 C84.4672549,100.367843 86.2901961,98.545098 86.2901961,96.3045098 L86.2901961,93.5447059 L95.0847059,93.5447059 C97.7611765,93.5447059 99.9386275,91.367451 99.9386275,88.6907843 L99.9386275,57.9282353 C99.9386275,57.1158824 99.2801961,56.4576471 98.4680392,56.4576471 Z M83.3490196,96.3043137 C83.3490196,96.9229412 82.8456863,97.4264706 82.2268627,97.4264706 L72.7358824,97.4264706 C72.1172549,97.4264706 71.6137255,96.9231373 71.6137255,96.3043137 L71.6137255,93.5445098 L83.3488235,93.5445098 L83.3488235,96.3043137 L83.3490196,96.3043137 Z" id="Shape"></path>
                    <path d="M95.0847059,0 L4.89078431,0 C2.21431373,0 0.0368627451,2.1772549 0.0368627451,4.85392157 L0.0368627451,24.1521569 L0.0368627451,35.2370588 L0.0368627451,58.307451 L0.0368627451,69.3923529 L0.0368627451,88.6905882 C0.0368627451,91.3668627 2.21431373,93.5445098 4.89078431,93.5445098 L13.6852941,93.5445098 L13.6852941,96.3043137 C13.6852941,98.544902 15.5080392,100.367647 17.7486275,100.367647 L27.2396078,100.367647 C29.4801961,100.367647 31.3029412,98.544902 31.3029412,96.3043137 L31.3029412,93.5445098 L35.837451,93.5445098 C36.6496078,93.5445098 37.3080392,92.8862745 37.3080392,92.0739216 C37.3080392,91.2615686 36.6496078,90.6033333 35.837451,90.6033333 L4.89078431,90.6033333 C3.83607843,90.6033333 2.97803922,89.7452941 2.97803922,88.6905882 L2.97803922,70.8629412 L7.66607843,70.8629412 L7.66607843,81.3160784 C7.66607843,83.5260784 9.46411765,85.3241176 11.6743137,85.3241176 L88.3013725,85.3241176 C90.5113725,85.3241176 92.3096078,83.5260784 92.3096078,81.3160784 L92.3096078,12.2284314 C92.3096078,10.0184314 90.5115686,8.22039216 88.3013725,8.22039216 L11.6743137,8.22039216 C9.46431373,8.22039216 7.66607843,10.0184314 7.66607843,12.2284314 L7.66607843,22.6815686 L2.97803922,22.6815686 L2.97803922,4.85392157 C2.97803922,3.79921569 3.83607843,2.94117647 4.89078431,2.94117647 L95.0845098,2.94117647 C96.1392157,2.94117647 96.9972549,3.79921569 96.9972549,4.85392157 L96.9972549,51.1315686 C96.9972549,51.9439216 97.6556863,52.6021569 98.4678431,52.6021569 C99.28,52.6021569 99.9384314,51.9439216 99.9384314,51.1315686 L99.9384314,4.85392157 C99.9384314,2.1772549 97.7611765,0 95.0847059,0 Z M28.3617647,93.5445098 L28.3617647,96.3043137 C28.3617647,96.9229412 27.8584314,97.4264706 27.2396078,97.4264706 L17.7486275,97.4264706 C17.13,97.4264706 16.6264706,96.9231373 16.6264706,96.3043137 L16.6264706,93.5445098 L28.3617647,93.5445098 Z M2.97803922,36.7076471 L7.66607843,36.7076471 L7.66607843,56.8368627 L2.97803922,56.8368627 L2.97803922,36.7076471 Z M2.97803922,67.9217647 L2.97803922,59.7780392 L10.8166667,59.7780392 C13.0619608,59.7780392 14.8886275,61.6045098 14.8886275,63.85 C14.8886275,66.0954902 13.0619608,67.9219608 10.8166667,67.9219608 L2.97803922,67.9219608 L2.97803922,67.9217647 Z M10.6072549,12.2284314 C10.6072549,11.6401961 11.0858824,11.1615686 11.6743137,11.1615686 L88.3013725,11.1615686 C88.8896078,11.1615686 89.3684314,11.6401961 89.3684314,12.2284314 L89.3684314,81.3160784 C89.3684314,81.9043137 88.8898039,82.3829412 88.3013725,82.3829412 L11.6743137,82.3829412 C11.0860784,82.3829412 10.6072549,81.9043137 10.6072549,81.3160784 L10.6072549,70.8629412 L10.8166667,70.8629412 C14.6837255,70.8629412 17.8298039,67.7168627 17.8298039,63.8498039 C17.8298039,59.9827451 14.6837255,56.8366667 10.8166667,56.8366667 L10.6072549,56.8366667 L10.6072549,36.7076471 L10.8166667,36.7076471 C14.6837255,36.7076471 17.8298039,33.5615686 17.8298039,29.6945098 C17.8298039,25.827451 14.6837255,22.6813725 10.8166667,22.6813725 L10.6072549,22.6813725 L10.6072549,12.2284314 Z M10.8166667,25.6227451 C13.0619608,25.6227451 14.8886275,27.4492157 14.8886275,29.6947059 C14.8886275,31.9401961 13.0619608,33.7666667 10.8166667,33.7666667 L2.97803922,33.7666667 L2.97803922,25.6229412 L10.8166667,25.6229412 L10.8166667,25.6227451 Z" id="Shape"></path>
                    <circle id="Oval" cx="15.5617647" cy="15.7645098" r="1.66333333"></circle>
                    <circle id="Oval" cx="84.4137255" cy="15.7645098" r="1.66333333"></circle>
                    <circle id="Oval" cx="15.5617647" cy="77.78" r="1.66333333"></circle>
                    <circle id="Oval" cx="84.4137255" cy="77.78" r="1.66333333"></circle>
                </g>
            </g>
        </g>
    </g>
</svg>