<?xml version="1.0" encoding="UTF-8"?>
<svg width="687px" height="134px" viewBox="0 0 687 134" version="1.1" xmlns="http://www.w3.org/2000/svg" xmlns:xlink="http://www.w3.org/1999/xlink">
    <!-- Generator: sketchtool 57.1 (101010) - https://sketch.com -->
    <title>C7566E7A-6971-4A1D-87B0-1F4CCCF114B6</title>
    <desc>Created with sketchtool.</desc>
    <defs>
        <linearGradient x1="50%" y1="0%" x2="50%" y2="100%" id="linearGradient-1">
            <stop stop-color="#E6864E" offset="0%"></stop>
            <stop stop-color="#EB965E" offset="100%"></stop>
        </linearGradient>
        <linearGradient x1="50%" y1="0%" x2="50%" y2="100%" id="linearGradient-2">
            <stop stop-color="#130027" offset="0%"></stop>
            <stop stop-color="#130017" offset="100%"></stop>
        </linearGradient>
        <linearGradient x1="50%" y1="100%" x2="50%" y2="0%" id="linearGradient-3">
            <stop stop-color="#E6864E" offset="0%"></stop>
            <stop stop-color="#E67240" offset="100%"></stop>
        </linearGradient>
        <linearGradient x1="50%" y1="0%" x2="50%" y2="100%" id="linearGradient-4">
            <stop stop-color="#130027" offset="0%"></stop>
            <stop stop-color="#130017" offset="100%"></stop>
        </linearGradient>
        <filter x="-28.1%" y="-19.8%" width="156.1%" height="139.5%" filterUnits="objectBoundingBox" id="filter-5">
            <feOffset dx="0" dy="3" in="SourceAlpha" result="shadowOffsetOuter1"></feOffset>
            <feGaussianBlur stdDeviation="2.5" in="shadowOffsetOuter1" result="shadowBlurOuter1"></feGaussianBlur>
            <feColorMatrix values="0 0 0 0 0   0 0 0 0 0   0 0 0 0 0.145098039  0 0 0 0.04 0" type="matrix" in="shadowBlurOuter1" result="shadowMatrixOuter1"></feColorMatrix>
            <feMerge>
                <feMergeNode in="shadowMatrixOuter1"></feMergeNode>
                <feMergeNode in="SourceGraphic"></feMergeNode>
            </feMerge>
        </filter>
        <linearGradient x1="50%" y1="0%" x2="50%" y2="100%" id="linearGradient-6">
            <stop stop-color="#F7B186" offset="0%"></stop>
            <stop stop-color="#FFC299" offset="100%"></stop>
        </linearGradient>
        <path d="M44,64.3135208 C36.6666667,69.6468542 29.3333333,73.9135208 22,73.9135208 C14.6666667,73.9135208 7.33333333,69.6468542 -1.45519152e-11,64.3135208 C6.04466113,62.4738414 9.11068682,59.7276207 9.19807704,56.0748587 C9.1962873,55.4236709 9.19324824,54.4990226 9.18895986,52.7624862 C9.18827898,52.4867699 9.1875666,52.2042796 9.18682273,51.9153936 C9.1747843,47.2592092 9.15517254,41.1168873 9.12775852,34.8751496 C3.39493111,27.4444743 5.50082569,18.7327757 7.29748704,18.9500351 C9.50172789,19.2165806 28.5829213,1.10953833 32.2429512,0.183067707 C35.9029812,-0.743402913 45.2,2.24996495 46.8,10.6 C48.4,18.9500351 49.0687874,39.9970636 43,48.4 C41.2730254,50.7911956 38.5533744,51.7264657 34.841047,51.2058104 C34.836027,52.9533395 34.8255349,53.9341097 34.8,55.9135208 C34.8474163,59.7332174 37.914083,62.4757163 44,64.3135208 Z" id="path-7"></path>
        <linearGradient x1="50%" y1="0%" x2="50%" y2="100%" id="linearGradient-9">
            <stop stop-color="#1D0024" offset="0%"></stop>
            <stop stop-color="#100014" offset="100%"></stop>
        </linearGradient>
        <linearGradient x1="50%" y1="0%" x2="50%" y2="100%" id="linearGradient-10">
            <stop stop-color="#1D0024" offset="0%"></stop>
            <stop stop-color="#100014" offset="100%"></stop>
        </linearGradient>
        <linearGradient x1="50%" y1="0%" x2="50%" y2="100%" id="linearGradient-11">
            <stop stop-color="#806A6A" offset="0%"></stop>
            <stop stop-color="#665654" offset="100%"></stop>
        </linearGradient>
        <path d="M7.6,2 L9.6,38.8 L0,38.8 L2,2 C3.24444444,0.666666667 4.17777778,0 4.8,0 C5.42222222,0 6.35555556,0.666666667 7.6,2 Z" id="path-12"></path>
        <path d="M8.05589888,9.47674157 L1.76570681,5.84240838 L2,2 C3.24444444,0.666666667 4.17777778,0 4.8,0 C5.42222222,0 6.35555556,0.666666667 7.6,2 L8.05589888,9.47674157 L8.05589888,9.47674157 Z" id="path-14"></path>
    </defs>
    <g id="Page-1" stroke="none" stroke-width="1" fill="none" fill-rule="evenodd">
        <g id="LANDING-OPTION-2" transform="translate(-372.000000, -1552.000000)">
            <g id="Group-5" transform="translate(120.000000, 1513.000000)">
                <g id="Group-25" transform="translate(252.000000, 38.000000)">
                    <g id="User-02c" transform="translate(0.000000, 17.000000)">
                        <g id="Group-12" transform="translate(0.000000, 0.400000)">
                            <path d="M60.8,58 L60.8,66.8 C60.8,67.3808634 56.5333333,68.5504867 48,70.3088698 C39.4666667,68.7982551 35.2,67.6286318 35.2,66.8 C35.2,64.4481701 35.248161,52.6406439 35.2,41.6751496 C29.4671726,34.2444743 29.4671726,29.6 34,24.8 C37.0218849,21.6 49.2885516,19.2 70.8,17.6 C72.4139968,33.1226538 73.3473301,42.9893204 73.6,47.2 C73.7524198,49.7400374 75.4,58 69,58 C66.6011249,58 63.8677916,58 60.8,58 Z" id="Mask" fill="url(#linearGradient-1)"></path>
                            <path d="M60.8,57.2492519 L60.8,62.0641307 C52.2269463,60.5371063 47.293613,57.3157295 46,52.4 C49.7333333,54.9333333 54.5333333,56.5333333 60.4,57.2 C60.5340024,57.2152275 60.6673555,57.2316608 60.8,57.2492519 Z" id="Combined-Shape" fill="#F5C6A6" style="mix-blend-mode: multiply;"></path>
                            <path d="M90,84.923133 C92.5387277,90.0849464 94.5387277,98.6182797 96,110.523133 L0,110.523133 C1.46197111,98.6169457 3.46197111,90.0836124 6,84.923133 C7.6864505,81.4941362 16.3531172,76.4796153 32,69.8795706 L64,69.876867 C79.6502228,76.4855626 88.3168894,81.5009846 90,84.923133 Z" id="Combined-Shape" fill="url(#linearGradient-2)" fill-rule="nonzero"></path>
                            <path d="M50.8,72.4 L52.8,109.2 L43.2,109.2 L45.2,72.4 C46.4444444,71.0666667 47.3777778,70.4 48,70.4 C48.6222222,70.4 49.5555556,71.0666667 50.8,72.4 Z" id="Mask" fill="url(#linearGradient-3)"></path>
                            <path d="M51.2047382,79.847182 L44.9903981,76.2566745 L45.2,72.4 C46.4444444,71.0666667 47.3777778,70.4 48,70.4 C48.6222222,70.4 49.5555556,71.0666667 50.8,72.4 L51.2047382,79.847182 Z" id="Combined-Shape" fill="#D24B24"></path>
                            <polygon id="Combined-Shape" fill="#FFFFFF" points="48 70.3965368 44 77.6 31.6 70 35.2 64.8 48 69.5284271 60.8 64.8 64.4 70 52 77.6"></polygon>
                            <path d="M40.4081437,29.6821525 C39.1359896,28.5896344 37.5904919,27.8542015 35.4057308,28.9893413 C30.2259923,31.6805864 33.6636679,42.0539741 39.4601347,41.8515571 C41.4589164,41.7817581 40.5431441,45.7676325 35.2,48.4 C35.2,44.2 28.8,33.8 28.2418426,24.3310117 C21.8,21.9331021 23.4,12.3383218 27.8230487,12.3383218 C27.1156203,3.54170874 41.2,-1 46.6536129,4.04638777 C52.2,-2.6 66.2,0.8 67.0454895,6.565962 C76.672002,1.42687096 83,16.2 73.9860229,21.9331021 C70.2769808,24.2921404 61.6,25.1911146 49.0750009,25.1911146 C43.0644243,25.1911146 46.5210348,39.2591674 48.4,43.8 C50.8,49.6 64.2,50.4 68.4,49.8 C71.6797974,49.3314575 73.4,48 73.6,47.2 C76.6,55.2 72.7999701,60 66.8,60 C56.6,60 46.4,57 44.8,49.6 C43.5266309,43.7106678 43.596419,34.2063955 40.4081437,29.6821525 Z" id="Combined-Shape" fill="url(#linearGradient-4)" fill-rule="nonzero"></path>
                        </g>
                    </g>
                    <g id="User-07b" transform="translate(591.000000, 18.000000)">
                        <g id="Group-10" transform="translate(14.600000, 0.200000)">
                            <g id="Group-11">
                                <g transform="translate(28.900000, 40.500000) scale(-1, 1) translate(-28.900000, -40.500000) translate(0.400000, 0.000000)" id="Group-2">
                                    <g>
                                        <g id="Group-14" filter="url(#filter-5)">
                                            <g id="Path-48" transform="translate(2.000000, 6.400000)">
                                                <mask id="mask-8" fill="white">
                                                    <use xlink:href="#path-7"></use>
                                                </mask>
                                                <use id="Combined-Shape" fill="url(#linearGradient-6)" xlink:href="#path-7"></use>
                                                <path d="M34.8,51.2 C28.9333333,50.5333333 24.1333333,48.9333333 20.4,46.4 C24.6666667,51.7333333 29.4666667,54.9333333 34.8,56 L34.8,51.2 Z" fill="#FC9F6A" fill-rule="nonzero" mask="url(#mask-8)"></path>
                                            </g>
                                            <path d="M8.2,41.4 C5.44407165,34.7718015 -5.6,21.2733798 3.91951189,12.8733798 C7.11951189,-2.72662015 24.8,-1 36.6,2.6 C44.5307869,5.01956211 50.5195119,9.8 51.8,6.2 C59.8,12.8733798 55.793744,19.4 50.5195119,21.2733798 C45.7329863,22.9735288 37.6387754,24.6733798 23.8773023,23.0733798 C21.4189495,22.7875555 21.9337796,30.3165765 20.620012,31.130681 C18.6493606,32.3518378 17.1195119,24.6733798 11.7164627,26.9788878 C6.31341346,29.2843957 9.51951189,39.9747649 15.3195119,39.9747649 C17.3195119,39.9747649 18.3195119,45.4733798 12.9195119,48.0733798 C9,50 9.99070926,45.7067798 8.2,41.4 Z" id="Path-22" fill="url(#linearGradient-9)" fill-rule="nonzero"></path>
                                        </g>
                                    </g>
                                </g>
                            </g>
                        </g>
                        <g id="Group-23" transform="translate(0.000000, 63.400000)">
                            <path d="M90,19.723133 C92.5387277,24.8849464 94.5387277,33.4182797 96,45.323133 L0,45.323133 C1.46197111,33.4169457 3.46197111,24.8836124 6,19.723133 C8.53802889,14.5626536 17.2179321,9.58917711 32.0397096,4.80270356 C44.3250506,9.60194319 51.8431058,9.60097198 63.9483211,4.8 C78.7773794,9.58694193 87.4612723,14.5613196 90,19.723133 Z" id="Combined-Shape" fill="url(#linearGradient-10)" fill-rule="nonzero"></path>
                            <g id="Group-22" transform="translate(43.200000, 5.600000)">
                                <mask id="mask-13" fill="white">
                                    <use xlink:href="#path-12"></use>
                                </mask>
                                <use id="Mask" fill="url(#linearGradient-11)" fill-rule="nonzero" xlink:href="#path-12"></use>
                                <mask id="mask-15" fill="white">
                                    <use xlink:href="#path-14"></use>
                                </mask>
                                <use id="Combined-Shape" fill="#645050" fill-rule="nonzero" xlink:href="#path-14"></use>
                            </g>
                            <path d="M60.8,0 L64.4,5.2 L52,12.8 L48,5.597 L44,12.8 L31.6,5.2 L35.2,0 L48,4.728 L60.8,0 Z" id="Combined-Shape" fill="#FFFFFF"></path>
                        </g>
                    </g>
                    <path id="Path-2" d="M156.580761,116.834947 L157.177253,116.637807 C159.563353,115.847464 161.9342,115.06881 164.289795,114.301846 L164.289795,114.301846 L165.528178,118.105319 C162.395984,119.125138 159.236623,120.165723 156.050096,121.227074 L157.854924,120.627427 C158.759119,126.307528 155.461273,131.97671 149.828493,133.872891 C143.547419,135.987309 136.741528,132.609567 134.627109,126.328493 C132.512691,120.047419 135.890433,113.241528 142.171507,111.127109 C147.808983,109.229348 153.869235,111.755888 156.580761,116.834947 Z M554.241984,111.105885 C560.53478,113.185157 563.950516,119.97206 561.871243,126.264856 C559.791971,132.557652 553.005068,135.973388 546.712272,133.894115 C541.06898,132.029452 537.739493,126.378795 538.611922,120.693728 C537.434189,120.309467 536.261072,119.928869 535.091699,119.551016 L535.091699,119.551016 L536.321586,115.744787 C538.091741,116.316768 539.870422,116.895011 541.657626,117.479516 L539.864517,116.894842 C542.547434,111.800267 548.593744,109.239587 554.241984,111.105885 Z M143.447671,114.918073 C139.260289,116.327685 137.008461,120.864946 138.418073,125.052329 C139.827685,129.239711 144.364946,131.491539 148.552329,130.081927 C152.739711,128.672315 154.991539,124.135054 153.581927,119.947671 C152.172315,115.760289 147.635054,113.508461 143.447671,114.918073 Z M542.881052,119.990096 C541.49487,124.185293 543.772027,128.709895 547.967224,130.096077 C552.162422,131.482258 556.687023,129.205101 558.073205,125.009904 C559.459387,120.814707 557.18223,116.290105 552.987032,114.903923 C548.791835,113.517742 544.267233,115.794899 542.881052,119.990096 Z M522.003321,111.196757 C525.157796,112.180965 528.340819,113.186147 531.55239,114.212304 L531.55239,114.212304 L530.334952,118.022533 C527.132016,116.999135 523.95768,115.996696 520.811947,115.015215 L520.811947,115.015215 Z M178.6045,109.726089 L179.801262,113.542863 C176.659555,114.527956 173.488989,115.535105 170.289565,116.564309 L170.289565,116.564309 L169.064646,112.756479 C172.273397,111.724274 175.453348,110.714144 178.6045,109.726089 L178.6045,109.726089 Z M507.636473,106.800058 C510.800162,107.748806 513.994229,108.719876 517.218676,109.713269 L517.218676,109.713269 L516.040973,113.535966 C512.826035,112.545503 509.641537,111.577342 506.48748,110.631483 L506.48748,110.631483 Z M192.973138,105.313768 L194.124001,109.144632 C190.971575,110.091679 187.788365,111.062248 184.574374,112.056339 L184.574374,112.056339 L183.392416,108.234954 C186.616704,107.237679 189.810277,106.263951 192.973138,105.313768 L192.973138,105.313768 Z M493.216062,102.569848 C496.389789,103.479474 499.595973,104.412956 502.834615,105.370291 L502.834615,105.370291 L501.700724,109.206213 C498.472616,108.251991 495.277037,107.321597 492.113988,106.415031 L492.113988,106.415031 Z M207.388072,101.085441 L208.488048,104.931225 C205.326167,105.835591 202.131354,106.765114 198.903613,107.719793 L198.903613,107.719793 L197.769104,103.884055 C201.008275,102.925995 204.214597,101.993123 207.388072,101.085441 L207.388072,101.085441 Z M478.743402,98.5259589 C481.926851,99.3918098 485.145108,100.283251 488.398176,101.200283 L488.398176,101.200283 L487.312884,105.050237 C484.071559,104.136515 480.86513,103.24835 477.693599,102.38574 L477.693599,102.38574 Z M221.872022,97.0559882 L222.915125,100.917586 C219.742505,101.774581 216.534473,102.65862 213.291033,103.569702 L213.291033,103.569702 L212.2093,99.718747 C215.46552,98.8040747 218.686427,97.9164883 221.872022,97.0559882 L221.872022,97.0559882 Z M464.226515,94.693218 C467.421115,95.5103158 470.653251,96.3550169 473.922924,97.2273207 L473.922924,97.2273207 L472.891842,101.092145 C469.635363,100.223362 466.416522,99.3821351 463.235325,98.5684654 L463.235325,98.5684654 Z M236.41043,93.2549683 L237.38956,97.1332805 C234.207677,97.9365874 230.987565,98.7690795 227.729228,99.6307574 L227.729228,99.6307574 L226.706571,95.763695 C229.979301,94.8982107 233.21392,94.0619682 236.41043,93.2549683 L236.41043,93.2549683 Z M449.630468,91.0898915 C452.835054,91.8513916 456.080303,92.6428068 459.36622,93.4641363 L459.36622,93.4641363 L458.396244,97.3447478 C455.125273,96.5271542 451.895092,95.7394137 448.705706,94.9815256 L448.705706,94.9815256 Z M251.020708,89.7082643 L251.927182,93.6041987 C248.735812,94.3467402 245.502926,95.1209623 242.228528,95.9268661 L242.228528,95.9268661 L241.272566,92.0427785 C244.563319,91.2328495 247.812698,90.4546777 251.020708,89.7082643 L251.020708,89.7082643 Z M434.959856,87.7509922 C438.176385,88.449431 441.437294,89.1805361 444.74259,89.9443059 L444.74259,89.9443059 L443.842023,93.8416098 C440.553834,93.081793 437.310182,92.3545572 434.111073,91.659901 L434.111073,91.659901 Z M265.705732,86.4524795 L266.528868,90.3668692 C263.327274,91.0401153 260.080266,91.7479964 256.78785,92.4905144 L256.78785,92.4905144 L255.907856,88.5885135 C259.21905,87.8417606 262.485006,87.1297487 265.705732,86.4524795 L265.705732,86.4524795 Z M420.22046,84.7188491 C423.449814,85.3446282 426.727986,86.0063631 430.054986,86.7040515 L430.054986,86.7040515 L429.234024,90.6188976 C425.926832,89.9253631 422.668655,89.2676646 419.459501,88.6457999 L419.459501,88.6457999 Z M280.474552,83.531712 L281.200955,87.4652013 C277.989564,88.0582537 274.728104,88.6894628 271.416586,89.3588318 L271.416586,89.3588318 L270.62408,85.438126 C273.957414,84.7643474 277.240901,84.128875 280.474552,83.531712 L280.474552,83.531712 Z M405.401027,82.0422997 C408.642367,82.5829148 411.937855,83.163443 415.2875,83.7838803 L415.2875,83.7838803 L414.558993,87.7169805 C411.232584,87.1008472 407.960572,86.5244544 404.742967,85.987798 L404.742967,85.987798 Z M295.319516,81.0050119 L295.932217,84.957808 C292.712637,85.4568572 289.437374,85.9983021 286.106438,86.5821481 L286.106438,86.5821481 L285.415847,82.6422136 C288.772467,82.0538656 292.073686,81.5081299 295.319516,81.0050119 L295.319516,81.0050119 Z M390.514398,79.7884212 C393.766648,80.2280085 397.079554,80.7123559 400.45313,81.2414566 L400.45313,81.2414566 L399.833359,85.1931505 C396.487461,84.6683906 393.20254,84.1881346 389.978614,83.7523757 L389.978614,83.7523757 Z M310.239899,78.9454361 L310.716895,82.9168937 C307.490658,83.3043837 304.201804,83.7394862 300.850352,84.2222103 L300.850352,84.2222103 L300.2801,80.2630674 C303.662278,79.7759177 306.982205,79.3367043 310.239899,78.9454361 L310.239899,78.9454361 Z M375.541153,78.0388746 C378.803493,78.3565465 382.134653,78.7250826 385.534657,79.1444706 L385.534657,79.1444706 L385.044971,83.1143834 C381.678554,82.6991383 378.381385,82.3343628 375.153485,82.0200444 L375.153485,82.0200444 Z M325.25244,77.4470295 L325.564308,81.4348533 C322.335475,81.6873637 319.035329,81.9940036 315.663895,82.3547893 L315.663895,82.3547893 L315.238275,78.3774978 C318.647154,78.012705 321.985201,77.7025435 325.25244,77.4470295 L325.25244,77.4470295 Z M360.488245,76.9087094 C363.754988,77.0758869 367.100876,77.301685 370.525942,77.5860811 L370.525942,77.5860811 L370.194946,81.5723628 C366.811508,81.2914232 363.507784,81.0684705 360.28381,80.9034818 L360.28381,80.9034818 Z M340.332533,76.6418888 L340.439423,80.6404604 C337.215649,80.7266382 333.909448,80.8752245 330.520858,81.0862496 L330.520858,81.0862496 L330.272239,77.0939835 C333.707446,76.8800553 337.060866,76.7293469 340.332533,76.6418888 L340.332533,76.6418888 Z M346.999268,76.5512005 C349.754919,76.5512005 352.574727,76.5993303 355.459466,76.6955739 L355.459466,76.6955739 L355.326088,80.6933496 C352.485284,80.5985718 349.709916,80.5512005 346.999274,80.5512005 C346.470817,80.5512022 345.939976,80.5530052 345.406751,80.55661 L345.406751,80.55661 L345.379711,76.5567014 C345.921925,76.5530359 346.461775,76.5512022 346.999268,76.5512005 Z" fill="#28458F" fill-rule="nonzero"></path>
                    <g id="rich-(1)" transform="translate(318.000000, 0.000000)" fill="#FFC80A" fill-rule="nonzero">
                        <path d="M16.586,11.028 C16.993,12.206 18.09,12.998 19.316,12.998 L26.747,12.998 C27.973,12.998 29.07,12.206 29.477,11.028 C29.865,9.902 31.084,7.383 32.03,6.583 C32.859,5.88 33.248,4.791 33.044,3.741 C32.844,2.708 32.123,1.892 31.116,1.559 C28.115,0.564 25.453,0.899 23.418,2.526 C23.053,2.818 22.563,2.818 22.198,2.526 C20.163,0.9 17.503,0.565 14.5,1.56 C13.493,1.893 12.771,2.708 12.571,3.742 C12.367,4.792 12.756,5.881 13.585,6.584 C14.656,7.49 16.296,10.188 16.586,11.028 Z M14.535,4.123 C14.571,3.936 14.697,3.602 15.129,3.459 C16.059,3.151 16.926,2.998 17.728,2.998 C18.962,2.998 20.04,3.362 20.949,4.089 C22.044,4.966 23.574,4.964 24.667,4.089 C26.168,2.889 28.125,2.677 30.487,3.459 C30.919,3.602 31.044,3.937 31.08,4.123 C31.147,4.47 31.019,4.819 30.737,5.058 C29.209,6.352 27.843,9.634 27.587,10.377 C27.459,10.749 27.121,10.999 26.748,10.999 L19.317,10.999 C18.943,10.999 18.606,10.749 18.478,10.377 C18.061,9.169 16.206,6.183 14.879,5.058 C14.596,4.818 14.467,4.469 14.535,4.123 Z" id="Shape"></path>
                        <path d="M31.532,14.998 C31.532,14.446 31.084,13.998 30.532,13.998 C30.346,13.998 30.181,14.063 30.032,14.151 C29.883,14.062 29.718,13.998 29.532,13.998 L17.532,13.998 C16.98,13.998 16.532,14.446 16.532,14.998 C16.532,15.55 16.98,15.998 17.532,15.998 L29.532,15.998 L29.532,16.998 L18.532,16.998 C17.98,16.998 17.532,17.446 17.532,17.998 C17.532,18.55 17.98,18.998 18.532,18.998 L30.457,18.998 C31.353,19.744 32.457,20.171 33.636,20.171 C34.971,20.171 36.227,19.65 37.172,18.705 C37.563,18.314 37.563,17.682 37.172,17.291 C36.781,16.9 36.149,16.9 35.758,17.291 C34.628,18.421 32.67,18.424 31.532,17.305 L31.532,14.998 Z" id="Path"></path>
                        <path d="M21.532,26.998 C15.121,26.998 7.532,35.129 7.532,41.998 C7.532,42.55 7.98,42.998 8.532,42.998 C9.084,42.998 9.532,42.55 9.532,41.998 C9.532,36.288 16.261,28.998 21.532,28.998 C22.084,28.998 22.532,28.55 22.532,27.998 C22.532,27.446 22.084,26.998 21.532,26.998 Z" id="Path"></path>
                        <path d="M49.532,32.998 C48.501,32.998 47.273,33.058 46.035,33.199 C44.688,30.733 42.912,28.612 40.67,26.895 L33.468,22 C32.277,21.086 30.4,19.998 28.222,19.998 L20.445,19.998 C18.521,19.998 16.629,20.653 15.145,21.82 L8.067,26.977 C0.69,32.777 -1.645,42.941 2.516,51.145 C4.03,54.13 6.559,57.737 10.017,57.971 C10.288,57.989 10.562,57.999 10.838,57.999 L30.297,57.999 C31.765,59.825 34.012,60.999 36.532,60.999 C39.43,60.999 41.966,59.444 43.37,57.13 C45.157,57.685 47.348,57.999 49.532,57.999 C54.341,57.999 59.532,56.47 59.532,53.999 L59.532,48.499 L59.453,48.499 C59.501,48.337 59.532,48.171 59.532,47.999 L59.532,41.999 L59.532,36.499 C59.532,33.735 53.246,32.998 49.532,32.998 Z M57.456,36.489 C57.435,36.51 57.418,36.531 57.389,36.554 C57.35,36.585 57.303,36.618 57.25,36.652 C57.184,36.694 57.104,36.738 57.017,36.782 C56.946,36.818 56.872,36.855 56.787,36.892 C56.682,36.939 56.558,36.986 56.431,37.034 C56.329,37.072 56.226,37.11 56.11,37.149 C55.964,37.197 55.796,37.245 55.627,37.292 C55.495,37.329 55.365,37.367 55.219,37.403 C55.029,37.45 54.815,37.493 54.602,37.536 C54.441,37.569 54.288,37.603 54.114,37.634 C53.874,37.676 53.606,37.712 53.341,37.748 C53.16,37.773 52.991,37.801 52.798,37.823 C52.483,37.859 52.136,37.884 51.79,37.909 C51.614,37.922 51.454,37.94 51.27,37.951 C50.724,37.981 50.146,37.9989992 49.529,37.9989992 C48.912,37.9989992 48.334,37.981 47.788,37.951 C47.604,37.941 47.444,37.923 47.268,37.909 C46.922,37.883 46.575,37.858 46.26,37.823 C46.067,37.801 45.898,37.773 45.717,37.748 C45.452,37.712 45.184,37.676 44.944,37.634 C44.77,37.603 44.617,37.569 44.456,37.536 C44.243,37.492 44.029,37.449 43.839,37.403 C43.693,37.367 43.564,37.33 43.431,37.292 C43.262,37.245 43.095,37.197 42.948,37.149 C42.832,37.111 42.729,37.072 42.627,37.034 C42.5,36.986 42.376,36.939 42.271,36.892 C42.186,36.855 42.112,36.818 42.041,36.782 C41.954,36.737 41.874,36.693 41.808,36.652 C41.755,36.618 41.708,36.586 41.669,36.554 C41.642,36.533 41.627,36.514 41.607,36.494 C41.619,36.484 41.627,36.474 41.641,36.463 C41.678,36.432 41.731,36.397 41.783,36.363 C41.864,36.31 41.965,36.254 42.084,36.194 C42.149,36.161 42.213,36.129 42.289,36.096 C42.368,36.061 42.459,36.026 42.55,35.99 C42.658,35.948 42.776,35.906 42.901,35.864 C42.991,35.834 43.078,35.803 43.178,35.773 C43.402,35.705 43.647,35.638 43.916,35.573 C44.04,35.543 44.184,35.516 44.319,35.488 C44.482,35.453 44.649,35.419 44.826,35.387 C45.021,35.352 45.228,35.319 45.442,35.287 C46.569,35.117 47.918,34.9989992 49.527,34.9989992 C54.253,34.998 56.896,35.973 57.456,36.489 Z M42.207,44.716 C42.297,44.754 42.39,44.79 42.484,44.827 C42.658,44.895 42.836,44.959 43.02,45.022 C43.117,45.055 43.212,45.087 43.311,45.118 C43.522,45.184 43.739,45.245 43.961,45.304 C44.039,45.325 44.114,45.348 44.193,45.367 C44.496,45.443 44.806,45.513 45.124,45.575 C45.19,45.588 45.259,45.598 45.326,45.611 C45.581,45.659 45.839,45.703 46.101,45.742 C46.213,45.759 46.326,45.773 46.439,45.788 C46.664,45.818 46.89,45.845 47.119,45.869 C47.239,45.881 47.359,45.893 47.479,45.904 C47.715,45.925 47.952,45.941 48.19,45.955 C48.296,45.961 48.402,45.969 48.508,45.974 C48.85,45.989 49.191,45.999 49.531,45.999 C49.871,45.999 50.212,45.989 50.554,45.974 C50.662,45.969 50.77,45.961 50.878,45.955 C51.113,45.941 51.348,45.925 51.582,45.905 C51.705,45.894 51.828,45.882 51.95,45.869 C52.175,45.846 52.398,45.819 52.62,45.789 C52.736,45.774 52.852,45.759 52.967,45.742 C53.225,45.704 53.479,45.66 53.73,45.613 C53.801,45.6 53.873,45.589 53.944,45.575 C54.26,45.512 54.569,45.443 54.87,45.368 C54.954,45.347 55.034,45.323 55.117,45.301 C55.334,45.243 55.547,45.183 55.753,45.118 C55.854,45.086 55.951,45.053 56.049,45.02 C56.232,44.958 56.41,44.893 56.583,44.826 C56.676,44.79 56.769,44.753 56.859,44.715 C57.039,44.639 57.21,44.559 57.375,44.477 C57.427,44.451 57.486,44.429 57.536,44.403 L57.542,47.927 C57.307,48.496 54.723,49.764 50.646,49.967 C50.28,49.98 49.926,49.998 49.531,49.998 C47.328,49.998 45.152,49.66 43.49,49.066 C43.484,49.056 43.477,49.046 43.471,49.036 C43.353,48.83 43.228,48.629 43.093,48.435 C43.073,48.406 43.05,48.379 43.029,48.35 C42.904,48.175 42.775,48.004 42.636,47.84 C42.594,47.791 42.549,47.746 42.506,47.697 C42.383,47.558 42.259,47.421 42.127,47.291 C42.059,47.224 41.986,47.164 41.916,47.099 C41.8,46.993 41.686,46.887 41.565,46.788 C41.553,46.778 41.543,46.767 41.531,46.758 C41.531,46.367 41.532,45.498 41.533,44.405 C41.584,44.432 41.645,44.455 41.697,44.481 C41.862,44.562 42.03,44.641 42.207,44.716 Z M28.996,55.998 L10.838,55.998 C10.607,55.998 10.377,55.99 10.15,55.975 C8.185,55.842 6.107,53.805 4.299,50.24 C0.568,42.884 2.673,33.761 9.273,28.571 L16.351,23.414 C17.513,22.501 18.967,21.998 20.444,21.998 L28.221,21.998 C29.838,21.998 31.304,22.862 32.297,23.621 L39.499,28.515 C41.288,29.887 42.779,31.565 43.944,33.516 C42.678,33.777 41.454,34.175 40.613,34.759 C40.59,34.775 40.567,34.791 40.544,34.807 C40.417,34.899 40.301,34.996 40.195,35.098 C40.15,35.141 40.11,35.185 40.069,35.23 C39.99,35.317 39.914,35.405 39.852,35.499 C39.8,35.576 39.762,35.659 39.722,35.741 C39.687,35.815 39.645,35.886 39.62,35.964 C39.565,36.133 39.531,36.31 39.531,36.498 L39.531,41.998 L39.531,45.587 C39.194,45.45 38.845,45.34 38.487,45.25 C38.44,45.238 38.393,45.225 38.346,45.214 C37.996,45.132 37.639,45.07 37.274,45.036 C37.233,45.032 37.192,45.033 37.151,45.03 C36.946,45.014 36.74,44.999 36.531,44.999 C36.421,44.999 36.315,45.011 36.206,45.015 C36.121,45.018 36.036,45.022 35.951,45.028 C35.595,45.054 35.243,45.095 34.901,45.166 C34.894,45.167 34.888,45.167 34.881,45.169 C34.854,45.175 34.829,45.186 34.802,45.192 C34.489,45.261 34.184,45.352 33.886,45.458 C33.778,45.496 33.67,45.534 33.564,45.576 C33.267,45.695 32.977,45.827 32.698,45.98 C32.593,46.037 32.495,46.103 32.393,46.165 C32.198,46.284 32.008,46.409 31.825,46.544 C31.717,46.623 31.608,46.7 31.504,46.784 C31.269,46.974 31.045,47.177 30.833,47.393 C30.74,47.487 30.655,47.587 30.567,47.686 C30.417,47.854 30.274,48.029 30.139,48.209 C30.066,48.307 29.989,48.4 29.92,48.501 C29.744,48.758 29.587,49.028 29.442,49.305 C29.386,49.413 29.335,49.523 29.283,49.634 C29.169,49.879 29.067,50.129 28.978,50.387 C28.952,50.462 28.92,50.533 28.897,50.609 C28.794,50.937 28.719,51.277 28.659,51.621 C28.651,51.665 28.635,51.707 28.628,51.751 C28.62,51.805 28.62,51.863 28.613,51.917 C28.581,52.152 28.561,52.39 28.55,52.631 C28.546,52.717 28.538,52.802 28.537,52.889 C28.537,52.926 28.531,52.962 28.531,52.999 C28.531,53.158 28.546,53.313 28.555,53.469 C28.594,54.333 28.735,55.201 28.996,55.998 Z M36.532,58.998 C33.247,58.998 30.574,56.344 30.536,53.069 C30.536,52.991 30.538,52.914 30.541,52.836 C30.544,52.726 30.549,52.617 30.558,52.508 C30.565,52.416 30.576,52.325 30.587,52.234 C30.599,52.141 30.613,52.049 30.629,51.958 C30.674,51.698 30.732,51.441 30.811,51.192 C30.819,51.165 30.831,51.14 30.84,51.114 C30.924,50.863 31.025,50.618 31.142,50.381 C31.153,50.358 31.164,50.335 31.175,50.313 C31.714,49.255 32.565,48.361 33.596,47.772 C33.6,47.77 33.603,47.767 33.607,47.765 C33.841,47.632 34.087,47.52 34.337,47.42 C34.402,47.394 34.468,47.371 34.533,47.348 C34.755,47.269 34.981,47.2 35.214,47.149 C35.246,47.142 35.276,47.131 35.308,47.125 C35.597,47.066 35.887,47.034 36.176,47.017 C36.231,47.014 36.286,47.01 36.342,47.009 C36.637,47 36.931,47.008 37.221,47.042 C37.238,47.044 37.254,47.047 37.27,47.05 C37.576,47.088 37.879,47.149 38.177,47.235 C38.181,47.236 38.186,47.237 38.19,47.238 C38.497,47.327 38.798,47.442 39.092,47.581 C39.362,47.709 39.625,47.852 39.871,48.017 L39.911,48.045 C39.946,48.069 39.978,48.096 40.012,48.12 C40.178,48.239 40.337,48.365 40.49,48.5 C40.527,48.532 40.563,48.566 40.599,48.599 C40.752,48.741 40.898,48.889 41.035,49.045 C41.049,49.061 41.063,49.075 41.077,49.091 C41.395,49.461 41.669,49.87 41.889,50.309 C41.94,50.409 41.991,50.51 42.036,50.613 C42.112,50.788 42.178,50.965 42.237,51.144 C42.241,51.157 42.247,51.17 42.251,51.183 C42.309,51.364 42.356,51.548 42.396,51.733 C42.399,51.748 42.404,51.762 42.407,51.776 C42.445,51.96 42.473,52.146 42.494,52.333 C42.496,52.35 42.5,52.365 42.502,52.382 C42.523,52.586 42.534,52.791 42.534,52.998 C42.534,53.21 42.522,53.421 42.5,53.631 C42.497,53.662 42.49,53.691 42.486,53.722 C42.464,53.903 42.437,54.083 42.398,54.26 C42.394,54.28 42.387,54.299 42.383,54.319 C42.34,54.509 42.289,54.697 42.227,54.883 C42.224,54.891 42.221,54.899 42.218,54.907 C42.152,55.101 42.076,55.292 41.99,55.481 C41.041,57.552 38.954,58.998 36.532,58.998 Z M49.532,55.998 C47.634,55.998 45.745,55.745 44.193,55.292 C44.194,55.29 44.194,55.288 44.194,55.286 C44.291,54.962 44.362,54.628 44.418,54.288 C44.431,54.207 44.444,54.127 44.455,54.045 C44.5,53.701 44.532,53.354 44.532,52.998 C44.532,52.739 44.518,52.482 44.493,52.227 C44.484,52.135 44.468,52.046 44.456,51.955 C44.439,51.826 44.427,51.696 44.404,51.569 C45.921,51.849 47.683,51.998 49.532,51.998 C51.922,51.998 55.377,51.693 57.536,50.739 L57.542,53.927 C57.286,54.546 54.251,55.998 49.532,55.998 Z M49.532,43.998 C44.829,43.998 41.801,42.557 41.537,42.004 C41.538,40.864 41.539,39.707 41.539,38.743 C41.564,38.754 41.594,38.763 41.62,38.774 C41.859,38.876 42.109,38.972 42.375,39.06 C42.389,39.065 42.403,39.07 42.418,39.074 C42.69,39.162 42.977,39.241 43.27,39.314 C43.366,39.338 43.465,39.36 43.563,39.382 C43.777,39.431 43.993,39.478 44.214,39.52 C44.321,39.541 44.427,39.561 44.535,39.58 C44.778,39.623 45.022,39.661 45.269,39.697 C45.347,39.708 45.424,39.721 45.502,39.732 C45.825,39.775 46.148,39.813 46.469,39.844 C46.55,39.852 46.629,39.858 46.71,39.865 C46.957,39.887 47.201,39.907 47.443,39.923 C47.548,39.93 47.65,39.936 47.753,39.942 C47.977,39.955 48.195,39.965 48.411,39.973 C48.502,39.976 48.593,39.98 48.682,39.983 C48.975,39.991 49.261,39.996 49.531,39.996 C49.8,39.996 50.086,39.991 50.379,39.983 C50.47,39.98 50.562,39.976 50.654,39.973 C50.868,39.965 51.085,39.955 51.308,39.942 C51.413,39.936 51.516,39.93 51.622,39.923 C51.864,39.907 52.109,39.887 52.356,39.864 C52.436,39.857 52.514,39.851 52.594,39.843 C52.916,39.811 53.239,39.774 53.562,39.73 C53.641,39.719 53.719,39.706 53.798,39.695 C54.044,39.66 54.288,39.621 54.53,39.578 C54.639,39.559 54.745,39.538 54.852,39.518 C55.073,39.475 55.29,39.429 55.505,39.379 C55.603,39.356 55.701,39.335 55.797,39.311 C56.096,39.236 56.388,39.156 56.665,39.066 C56.679,39.061 56.691,39.056 56.705,39.052 C56.966,38.966 57.213,38.871 57.448,38.771 C57.476,38.759 57.509,38.749 57.537,38.737 L57.543,41.925 C57.286,42.546 54.251,43.998 49.532,43.998 Z" id="Shape"></path>
                    </g>
                </g>
            </g>
        </g>
    </g>
</svg>