<?xml version="1.0" encoding="UTF-8"?>
<svg width="264px" height="60px" viewBox="0 0 264 60" version="1.1" xmlns="http://www.w3.org/2000/svg" xmlns:xlink="http://www.w3.org/1999/xlink">
    <!-- Generator: sketchtool 57.1 (101010) - https://sketch.com -->
    <title>28FBEC73-A1B6-4B53-B545-0335FFC0258A</title>
    <desc>Created with sketchtool.</desc>
    <g id="Page-1" stroke="none" stroke-width="1" fill="none" fill-rule="evenodd">
        <g id="M-LANDING" transform="translate(-48.000000, -4782.000000)">
            <g id="Official-Logo-(2)" transform="translate(48.000000, 4782.000000)">
                <g id="_1755156250608" transform="translate(12.040989, 11.534392)">
                    <path d="M206.968149,8.07883598 L206.968149,29.4195767 C206.968149,29.8259259 207.091212,29.9486772 207.49859,29.9486772 L212.449186,29.9486772 L212.449186,17.6031746 C212.449186,16.3259259 212.27255,15.8365079 212.27255,14.6047619 C212.90006,15.3248677 217.639011,24.5957672 218.461193,26.2449735 C218.798023,26.921164 219.100904,27.5179894 219.462664,28.2439153 C220.642893,30.6084656 219.718867,29.9486772 227.831947,29.9486772 C228.239325,29.9486772 228.362387,29.8259259 228.362387,29.4195767 L228.362387,7.54973545 L222.88135,7.54973545 L222.88135,21.4825397 C222.88135,22.0904762 223.011838,22.1656085 223.057987,22.7169312 C222.573695,22.362963 216.722411,10.9677249 215.867342,9.25396825 C214.687643,6.88941799 215.610609,7.54920635 207.498059,7.54920635 C207.090681,7.54920635 206.967619,7.67195767 206.967619,8.07830688 L206.968149,8.07883598 Z" id="Path" fill="#2E5298"></path>
                    <path d="M240.739675,24.8338624 L239.148354,24.8338624 L239.148354,12.6645503 C240.37208,12.6645503 241.959687,12.5349206 243.043906,13.0116402 L243.997107,13.6481481 C246.296564,15.7142857 246.793056,24.8338624 240.739675,24.8338624 Z M232.959711,29.4195767 C232.959711,29.8259259 233.082773,29.9486772 233.490151,29.9486772 C238.749994,29.9486772 244.368945,30.552381 248.370585,27.3312169 C252.163231,24.2777778 252.798698,16.9343915 250.880627,12.9550265 C247.734587,6.42751323 239.936588,7.55026455 232.959711,7.55026455 L232.959711,29.4201058 L232.959711,29.4195767 Z" id="Shape" fill="#2E5298"></path>
                    <path d="M77.7147679,17.073545 L76.1234479,17.073545 L76.1234479,12.3116402 C77.4209042,12.3116402 80.1903315,12.1285714 80.1903315,14.4280423 C80.1903315,15.8015873 79.3967932,17.073545 77.7147679,17.073545 Z M69.9348041,29.9481481 L75.5930078,29.9481481 C76.0003858,29.9481481 76.1234479,29.8253968 76.1234479,29.4190476 L76.1234479,21.8354497 L77.5381314,21.8354497 C77.6983243,22.521164 78.2918867,23.2481481 78.6536468,23.8973545 L81.0655576,28.0174603 C82.5327547,30.5756614 80.9377215,29.9486772 88.5007354,29.9486772 C89.3515612,29.9486772 88.83173,29.4328042 88.5516576,29.0365079 C88.2180108,28.5645503 88.0143219,28.2507937 87.6875708,27.7613757 C86.9698855,26.6878307 82.8372272,20.7126984 82.6658951,20.0719577 C83.6063653,19.8216931 84.674141,18.6375661 85.249138,17.8867725 C87.1640265,15.3873016 87.9899216,7.54973545 77.1843279,7.54973545 L69.9348041,7.54973545 L69.9348041,29.9486772 L69.9348041,29.9481481 Z" id="Shape" fill="#2E5298"></path>
                    <path d="M153.038843,11.9587302 C153.639301,12.3978836 153.208053,11.9380952 153.71038,13.9349206 C154.081157,15.4089947 155.318143,19.7312169 155.33777,20.6010582 L150.917613,20.6010582 C151.260277,19.8888889 153.017095,12.9529101 153.039373,11.9587302 L153.038843,11.9587302 Z M141.899602,29.9486772 L148.441519,29.9486772 L149.679036,25.715873 L156.751392,25.715873 C156.930681,26.484127 157.114744,27.1571429 157.344424,27.9465608 C158.076962,30.4656085 156.711079,29.9486772 164.000916,29.9486772 C164.911151,29.9486772 164.230066,29.1343915 163.760627,27.5433862 L157.281832,7.55026455 L148.971429,7.55026455 C148.912019,8.26296296 148.438867,9.58941799 148.197517,10.3058201 L143.644219,24.2830688 C143.290416,25.3428571 141.974394,29.0412698 141.898541,29.9492063 L141.899602,29.9486772 Z" id="Shape" fill="#2E5298"></path>
                    <path d="M183.451621,22.0116402 C183.451621,24.4169312 184.556528,26.5619048 185.787149,27.7952381 C189.526221,31.5407407 202.547462,31.9497354 202.547462,21.3063492 L202.547462,7.54973545 L196.358819,7.54973545 L196.358819,21.4825397 C196.358819,23.2026455 195.390766,25.0100529 193.706618,25.0100529 C191.630476,25.0100529 189.639735,24.7582011 189.639735,21.4825397 L189.639735,7.54973545 L183.451091,7.54973545 L183.451091,22.0116402 L183.451621,22.0116402 Z" id="Path" fill="#2E5298"></path>
                    <path d="M107.066667,13.5460317 C107.066667,21.6042328 116.437951,20.5259259 116.437951,23.5989418 C116.437951,26.5677249 110.050392,24.6227513 108.580542,24.0291005 C107.931284,23.7666667 107.554671,23.4777778 106.89003,23.4227513 L106.89003,28.7137566 C109.845642,30.273545 111.607764,30.1248677 114.846631,30.1248677 C118.809017,30.1248677 122.626594,27.3296296 122.626594,23.4227513 C122.626594,18.4 119.486389,17.5994709 115.904858,15.8417989 C114.479566,15.1417989 113.25531,14.7566138 113.25531,13.5460317 C113.25531,11.9216931 115.413671,12.1624339 116.764702,12.3375661 C118.564485,12.5708995 119.94522,13.4703704 120.858638,13.5460317 C121.238963,11.9179894 122.246799,10.4121693 122.626594,8.78412698 C121.867004,8.72116402 113.970874,5.03227513 108.882893,9.36084656 C107.955684,10.1492063 107.067197,11.889418 107.067197,13.5460317 L107.066667,13.5460317 Z" id="Path" fill="#2E5298"></path>
                    <path d="M90.976299,29.9481481 L103.70739,29.9481481 C104.114768,29.9481481 104.23783,29.8253968 104.23783,29.4190476 L104.23783,24.8333333 L96.9883062,24.8333333 L96.9883062,20.7767196 L103.70739,20.7767196 L103.70739,15.8386243 L96.9883062,15.8386243 L96.9883062,12.4873016 L104.23783,12.4873016 L104.23783,7.54920635 L90.976299,7.54920635 L90.976299,29.9481481 Z" id="Path" fill="#2E5298"></path>
                    <path d="M166.830283,29.9481481 L172.311851,29.9481481 C172.719228,29.9481481 172.842291,29.8253968 172.842291,29.4190476 L172.842291,21.6587302 L179.030934,21.6587302 C179.965039,21.6587302 179.561374,19.6613757 179.561374,17.0730159 C179.561374,16.6666667 179.438312,16.5439153 179.030934,16.5439153 L172.842291,16.5439153 L172.842291,12.4873016 L180.091814,12.4873016 L180.091814,7.54920635 L166.830814,7.54920635 L166.830814,29.9481481 L166.830283,29.9481481 Z" id="Path" fill="#2E5298"></path>
                    <path d="M124.217384,12.6640212 L129.698951,12.6640212 L129.698951,29.4190476 C129.698951,29.8253968 129.822013,29.9481481 130.229391,29.9481481 L135.357155,29.9481481 C135.764533,29.9481481 135.887595,29.8253968 135.887595,29.4190476 L135.887595,12.6640212 L141.191995,12.6640212 L141.191995,7.54920635 L124.217384,7.54920635 L124.217384,12.6640212 L124.217384,12.6640212 Z" id="Path" fill="#2E5298"></path>
                    <path d="M0.00371308017,31.8883598 C0.274767932,32.1851852 0.273707052,32.2910053 0.577649186,32.6338624 C0.823773357,32.9116402 1.01844485,33.0777778 1.28578662,33.3433862 C7.973044,39.9767196 14.225871,35.6116402 15.8288608,35.2391534 L16.7343219,32.4174603 C14.1733574,32.9798942 13.5400121,33.4767196 10.2427969,32.8740741 C8.66420735,32.5857143 5.92660639,31.2634921 5.21952984,30.3010582 C4.47001808,30.4656085 3.54599156,31.0137566 2.6771308,31.2857143 C1.97801085,31.5047619 0.485883062,31.5920635 0.00265220012,31.8883598 L0.00371308017,31.8883598 Z" id="Path" fill="#A4C3E1"></path>
                    <path d="M31.1336468,1.90582011 L30.3496564,4.55132275 C31.9600723,4.41058201 34.7422303,2.74444444 39.5267993,5.07671958 C40.1946233,5.4021164 41.4273659,6.13174603 41.8214828,6.66772487 C42.5349247,6.52962963 43.4324292,6.0047619 44.2535503,5.74179894 C44.6975286,5.5994709 45.1812899,5.47830688 45.67566,5.3989418 C46.2543701,5.30582011 46.7041832,5.34603175 47.1062568,5.08042328 C46.9609162,4.96560847 45.2879084,2.96084656 44.2996986,2.25555556 C41.0364316,-0.0740740741 37.0188788,-0.625925926 33.2055455,0.895767196 C32.2756841,1.26666667 31.9118023,1.58095238 31.1341772,1.90582011 L31.1336468,1.90582011 Z" id="Path" fill="#A4C3E1"></path>
                    <path d="M37.2098373,31.1830688 C37.9524533,33.2582011 38.4160579,33.6603175 38.7268957,36.2978836 C40.0805787,35.7465608 41.3870524,33.9878307 42.1434599,32.7391534 C42.9815552,31.3555556 43.6149005,29.4486772 43.7660759,27.431746 C41.8989271,26.6354497 41.3244605,26.1809524 39.8763593,25.1201058 C39.6137914,25.6306878 39.6413743,26.3767196 39.4933816,26.9206349 C39.3506932,27.4439153 39.1602652,27.8851852 38.9199759,28.4645503 C38.4229536,29.6592593 37.8819048,30.2534392 37.2108981,31.1825397 L37.2098373,31.1830688 Z" id="Path" fill="#A4C3E1"></path>
                    <path d="M3.40436407,9.48941799 L4.45251356,10.0798942 C6.07619048,10.8619048 6.66338758,11.6359788 7.34182037,11.9582011 C7.34182037,9.38677249 8.68754671,7.28148148 9.84496685,5.78518519 C9.57603376,4.95449735 9.15062086,4.31375661 8.85940928,3.39206349 C8.59790235,2.56507937 8.57403255,1.32328042 8.22606389,0.678306878 C6.18758288,1.97989418 4.71985533,4.17460317 3.95708258,6.46507937 C3.5412176,7.71481481 3.57410488,7.87195767 3.40383363,9.48835979 L3.40436407,9.48941799 Z" id="Path" fill="#A4C3E1"></path>
                </g>
                <ellipse id="Oval" fill="#325196" cx="31.8142013" cy="11.5111111" rx="11.5402532" ry="11.5111111"></ellipse>
                <ellipse id="Oval" fill="#325196" cx="39.3894153" cy="48.4544974" rx="11.5402532" ry="11.5111111"></ellipse>
                <ellipse id="Oval" fill="#325196" cx="11.5848101" cy="31.9253968" rx="11.5402532" ry="11.5111111"></ellipse>
                <ellipse id="Oval" fill="#325196" cx="59.7413382" cy="28.1666667" rx="11.5402532" ry="11.5111111"></ellipse>
            </g>
        </g>
    </g>
</svg>